<?xml version="1.0" encoding="UTF-8" standalone="no"?>
<!-- Generator: Adobe Illustrator 16.0.0, SVG Export Plug-In . SVG Version: 6.00 Build 0)  -->

<svg
   version="1.1"
   id="Layer_1"
   x="0px"
   y="0px"
   width="1319.76px"
   height="1319.76px"
   viewBox="0 0 1319.76 1319.76"
   enable-background="new 0 0 1319.76 1319.76"
   xml:space="preserve"
   sodipodi:docname="beep-bop.SVG"
   inkscape:version="1.1 (c68e22c387, 2021-05-23)"
   inkscape:export-filename="D:\hero-img.png"
   inkscape:export-xdpi="49.310001"
   inkscape:export-ydpi="49.310001"
   xmlns:inkscape="http://www.inkscape.org/namespaces/inkscape"
   xmlns:sodipodi="http://sodipodi.sourceforge.net/DTD/sodipodi-0.dtd"
   xmlns="http://www.w3.org/2000/svg"
   xmlns:svg="http://www.w3.org/2000/svg"><defs
   id="defs17" /><sodipodi:namedview
   id="namedview15"
   pagecolor="#ffffff"
   bordercolor="#666666"
   borderopacity="1.0"
   inkscape:pageshadow="2"
   inkscape:pageopacity="0.0"
   inkscape:pagecheckerboard="0"
   showgrid="false"
   inkscape:zoom="0.31217797"
   inkscape:cx="-262.67068"
   inkscape:cy="677.49816"
   inkscape:window-width="2560"
   inkscape:window-height="1009"
   inkscape:window-x="1072"
   inkscape:window-y="-8"
   inkscape:window-maximized="1"
   inkscape:current-layer="Layer_1" />





<g
   id="g966"
   transform="matrix(0.72031447,0,0,0.7524273,187.60953,163.00104)"
   inkscape:export-filename="D:\g966.png"
   inkscape:export-xdpi="49.310001"
   inkscape:export-ydpi="49.310001"><path
     fill="#2A3990"
     d="m 188.064,134.107 c 2.324,-1.934 4.889,-4.549 7.699,-7.845 2.806,-3.291 5.375,-7.89 7.699,-13.8 2.324,-5.906 3.486,-14.281 3.486,-25.13 0,-21.108 -4.844,-36.556 -14.526,-46.338 -9.687,-9.778 -25.76,-14.671 -48.226,-14.671 -10.654,0 -19.61,0.871 -26.873,2.614 -7.263,1.743 -13.174,4.407 -17.722,7.989 -4.553,3.586 -7.844,8.279 -9.878,14.09 -2.034,5.811 -3.05,12.783 -3.05,20.918 v 140.611 c 0,8.135 1.017,15.107 3.05,20.918 2.033,5.811 5.325,10.509 9.878,14.09 4.548,3.586 10.458,6.246 17.722,7.99 7.263,1.742 16.219,2.614 26.873,2.614 11.23,0 20.817,-1.208 28.762,-3.632 7.939,-2.419 14.426,-6.101 19.464,-11.039 5.035,-4.939 8.716,-11.23 11.04,-18.885 2.324,-7.648 3.486,-16.8 3.486,-27.453 0,-10.65 -1.162,-18.93 -3.486,-24.84 -2.324,-5.906 -4.893,-10.604 -7.699,-14.091 -2.81,-3.485 -5.375,-6.341 -7.699,-8.57 -2.324,-2.224 -3.486,-4.983 -3.486,-8.28 0,-2.902 1.162,-5.322 3.486,-7.26 z m -2.615,63.043 c 0,3.876 -0.681,7.844 -2.034,11.91 -1.357,4.068 -3.246,7.75 -5.665,11.041 -2.424,3.295 -5.229,5.955 -8.425,7.988 -3.196,2.034 -6.537,3.051 -10.022,3.051 -4.068,0 -7.699,-0.916 -10.895,-2.76 -3.195,-1.838 -5.91,-4.309 -8.134,-7.408 -2.229,-3.096 -3.922,-6.682 -5.084,-10.75 -1.162,-4.066 -1.743,-8.425 -1.743,-13.072 0,-3.678 0.626,-7.555 1.888,-11.621 1.257,-4.068 3.05,-7.744 5.375,-11.04 2.324,-3.291 5.034,-6.001 8.134,-8.134 3.096,-2.13 6.583,-3.196 10.459,-3.196 3.677,0 7.118,0.972 10.313,2.905 3.196,1.938 5.956,4.503 8.28,7.699 2.324,3.195 4.163,6.826 5.52,10.894 1.353,4.068 2.033,8.236 2.033,12.493 z m -2.033,-97.325 c -1.357,4.067 -3.196,7.699 -5.52,10.895 -2.324,3.196 -5.084,5.766 -8.28,7.699 -3.195,1.938 -6.636,2.905 -10.313,2.905 -3.877,0 -7.408,-1.018 -10.604,-3.051 -3.196,-2.033 -5.911,-4.693 -8.135,-7.989 -2.229,-3.292 -3.972,-6.973 -5.229,-11.04 -1.262,-4.066 -1.888,-8.035 -1.888,-11.911 0,-4.648 0.581,-9.007 1.743,-13.073 1.162,-4.067 2.855,-7.649 5.084,-10.75 2.224,-3.096 4.939,-5.564 8.134,-7.408 3.196,-1.838 6.827,-2.76 10.895,-2.76 3.486,0 6.827,1.066 10.022,3.195 3.196,2.135 5.956,4.844 8.28,8.135 2.324,3.296 4.212,6.973 5.666,11.041 1.453,4.066 2.179,7.943 2.179,11.62 -10e-4,4.263 -0.681,8.425 -2.034,12.492 z m 43.576,135.21 c -3.295,-4.748 -4.938,-9.936 -4.938,-15.564 V 69.084 c 0,-6.591 1.643,-12.605 4.938,-18.034 3.291,-5.429 7.744,-10.032 13.364,-13.813 5.615,-3.781 12.102,-6.74 19.465,-8.874 7.358,-2.134 15.107,-3.201 23.242,-3.201 7.745,0 14.912,0.735 21.499,2.198 6.583,1.461 12.297,3.508 17.141,6.141 4.838,2.633 8.616,5.901 11.33,9.801 2.71,3.904 4.067,8.293 4.067,13.169 0,2.533 -0.921,4.825 -2.76,6.872 -1.843,2.053 -3.631,3.074 -5.375,3.074 -3.295,0 -6.441,-1.018 -9.442,-3.051 -3.005,-2.034 -6.246,-4.309 -9.732,-6.828 -3.486,-2.514 -7.363,-4.793 -11.621,-6.826 -4.263,-2.034 -9.297,-3.051 -15.107,-3.051 -6.201,0 -11.721,1.212 -16.56,3.631 -4.844,2.425 -8.961,5.666 -12.347,9.733 -3.391,4.067 -6.005,8.86 -7.844,14.38 -1.843,5.521 -2.76,11.477 -2.76,17.867 0,5.229 0.872,10.414 2.615,15.543 1.743,5.135 4.212,9.833 7.408,14.09 3.196,4.263 6.922,7.699 11.185,10.314 4.258,2.614 9.006,3.922 14.235,3.922 h 35.444 c 13.75,0 20.627,3.972 20.627,11.911 0,5.038 -5.52,8.135 -16.56,9.297 -9.878,1.162 -17.917,2.665 -24.114,4.503 -6.201,1.843 -11.04,4.313 -14.526,7.408 -3.486,3.101 -5.91,7.022 -7.263,11.766 -1.357,4.748 -2.034,10.51 -2.034,17.287 0,4.066 0.626,8.088 1.888,12.057 1.257,3.972 3.05,7.508 5.375,10.604 2.324,3.1 5.084,5.619 8.28,7.553 3.196,1.939 6.728,2.906 10.604,2.906 3.291,0 6.342,-0.759 9.152,-2.279 2.805,-1.516 5.47,-3.132 7.989,-4.839 2.515,-1.707 4.939,-3.317 7.263,-4.839 2.324,-1.516 4.648,-2.279 6.973,-2.279 6.001,0 9.006,2.982 9.006,8.943 0,4.812 -1.407,9.188 -4.212,13.127 -2.81,3.945 -6.731,7.359 -11.766,10.242 -5.039,2.887 -10.994,5.098 -17.867,6.636 -6.877,1.539 -14.48,2.306 -22.806,2.306 -7.363,0 -14.526,-0.967 -21.499,-2.909 -6.973,-1.938 -13.219,-4.653 -18.739,-8.144 -5.519,-3.488 -9.927,-7.61 -13.218,-12.363 z m 130.734,0 c -3.295,-4.748 -4.938,-9.936 -4.938,-15.564 V 69.084 c 0,-6.591 1.643,-12.605 4.938,-18.034 3.291,-5.429 7.744,-10.032 13.364,-13.813 5.615,-3.781 12.102,-6.74 19.465,-8.874 7.358,-2.134 15.107,-3.201 23.242,-3.201 7.745,0 14.912,0.735 21.499,2.198 6.583,1.461 12.297,3.508 17.141,6.141 4.838,2.633 8.616,5.901 11.33,9.801 2.71,3.904 4.067,8.293 4.067,13.169 0,2.533 -0.921,4.825 -2.76,6.872 -1.843,2.053 -3.631,3.074 -5.375,3.074 -3.295,0 -6.441,-1.018 -9.442,-3.051 -3.005,-2.034 -6.246,-4.309 -9.732,-6.828 -3.486,-2.514 -7.363,-4.793 -11.621,-6.826 -4.263,-2.034 -9.297,-3.051 -15.107,-3.051 -6.201,0 -11.721,1.212 -16.56,3.631 -4.844,2.425 -8.961,5.666 -12.347,9.733 -3.391,4.067 -6.005,8.86 -7.844,14.38 -1.843,5.521 -2.76,11.477 -2.76,17.867 0,5.229 0.872,10.414 2.615,15.543 1.743,5.135 4.212,9.833 7.408,14.09 3.196,4.263 6.922,7.699 11.185,10.314 4.258,2.614 9.006,3.922 14.235,3.922 h 35.444 c 13.75,0 20.627,3.972 20.627,11.911 0,5.038 -5.52,8.135 -16.56,9.297 -9.878,1.162 -17.917,2.665 -24.114,4.503 -6.201,1.843 -11.04,4.313 -14.526,7.408 -3.486,3.101 -5.91,7.022 -7.263,11.766 -1.357,4.748 -2.034,10.51 -2.034,17.287 0,4.066 0.626,8.088 1.888,12.057 1.257,3.972 3.05,7.508 5.375,10.604 2.324,3.1 5.084,5.619 8.28,7.553 3.196,1.939 6.728,2.906 10.604,2.906 3.291,0 6.342,-0.759 9.152,-2.279 2.805,-1.516 5.47,-3.132 7.989,-4.839 2.515,-1.707 4.939,-3.317 7.263,-4.839 2.324,-1.516 4.648,-2.279 6.973,-2.279 6.001,0 9.006,2.982 9.006,8.943 0,4.812 -1.407,9.188 -4.212,13.127 -2.81,3.945 -6.731,7.359 -11.766,10.242 -5.039,2.887 -10.994,5.098 -17.867,6.636 -6.877,1.539 -14.48,2.306 -22.806,2.306 -7.363,0 -14.526,-0.967 -21.499,-2.909 -6.973,-1.938 -13.219,-4.653 -18.739,-8.144 -5.52,-3.488 -9.927,-7.61 -13.218,-12.363 z M 589.56,40.995 c -9.687,-9.778 -25.761,-14.671 -48.227,-14.671 -10.458,0 -19.37,0.871 -26.728,2.614 -7.363,1.743 -13.318,4.407 -17.867,7.989 -4.553,3.586 -7.844,8.279 -9.878,14.09 -2.034,5.811 -3.05,12.783 -3.05,20.918 v 172.859 c 0,8.91 3.291,13.364 9.878,13.364 7.744,0 11.621,-6.196 11.621,-18.593 v -61.881 c 0,-5.421 0.967,-10.168 2.905,-14.236 1.934,-4.067 5.129,-7.408 9.587,-10.022 4.453,-2.615 10.214,-4.549 17.286,-5.812 7.068,-1.257 15.733,-1.888 26.001,-1.888 13.945,0 24.594,-5.179 31.958,-15.542 7.357,-10.359 11.04,-24.645 11.04,-42.853 0,-21.106 -4.843,-36.554 -14.526,-46.336 z m -9.006,59.12 c -1.357,4.068 -3.196,7.699 -5.52,10.896 -2.324,3.196 -5.084,5.715 -8.28,7.554 -3.195,1.843 -6.636,2.76 -10.313,2.76 -3.876,0 -7.363,-1.018 -10.459,-3.051 -3.1,-2.033 -5.811,-4.648 -8.135,-7.844 -2.324,-3.196 -4.117,-6.827 -5.375,-10.895 -1.262,-4.068 -1.888,-8.135 -1.888,-12.202 0,-4.648 0.581,-9.007 1.743,-13.073 1.162,-4.067 2.855,-7.649 5.084,-10.75 2.225,-3.096 4.939,-5.564 8.134,-7.408 3.196,-1.838 6.828,-2.76 10.895,-2.76 3.486,0 6.827,1.066 10.023,3.195 3.195,2.135 6.001,4.844 8.425,8.135 2.419,3.296 4.308,6.973 5.665,11.041 1.353,4.066 2.034,7.943 2.034,11.62 0,4.458 -0.68,8.716 -2.033,12.782 z m -392.49,302.946 c 2.324,-1.934 4.889,-4.549 7.699,-7.844 2.806,-3.291 5.375,-7.891 7.699,-13.801 2.324,-5.906 3.486,-14.281 3.486,-25.13 0,-21.108 -4.844,-36.556 -14.526,-46.338 -9.687,-9.778 -25.76,-14.671 -48.226,-14.671 -10.654,0 -19.61,0.871 -26.873,2.614 -7.263,1.743 -13.174,4.407 -17.722,7.989 -4.553,3.586 -7.844,8.279 -9.878,14.091 -2.034,5.81 -3.05,12.782 -3.05,20.917 V 481.5 c 0,8.134 1.017,15.106 3.05,20.917 2.033,5.811 5.325,10.509 9.878,14.091 4.548,3.586 10.458,6.246 17.722,7.989 7.263,1.743 16.219,2.615 26.873,2.615 11.23,0 20.817,-1.208 28.762,-3.633 7.939,-2.419 14.426,-6.1 19.464,-11.039 5.035,-4.939 8.716,-11.23 11.04,-18.885 2.324,-7.648 3.486,-16.8 3.486,-27.453 0,-10.65 -1.162,-18.93 -3.486,-24.84 -2.324,-5.906 -4.893,-10.604 -7.699,-14.09 -2.81,-3.486 -5.375,-6.342 -7.699,-8.57 -2.324,-2.225 -3.486,-4.984 -3.486,-8.28 0,-2.904 1.162,-5.324 3.486,-7.261 z m -2.615,63.043 c 0,3.877 -0.681,7.844 -2.034,11.911 -1.357,4.067 -3.246,7.749 -5.665,11.04 -2.424,3.295 -5.229,5.955 -8.425,7.988 -3.196,2.034 -6.537,3.051 -10.022,3.051 -4.068,0 -7.699,-0.916 -10.895,-2.76 -3.195,-1.838 -5.91,-4.308 -8.134,-7.408 -2.229,-3.096 -3.922,-6.682 -5.084,-10.749 -1.162,-4.067 -1.743,-8.425 -1.743,-13.073 0,-3.678 0.626,-7.555 1.888,-11.621 1.257,-4.067 3.05,-7.744 5.375,-11.04 2.324,-3.29 5.034,-6.001 8.134,-8.134 3.096,-2.13 6.583,-3.196 10.459,-3.196 3.677,0 7.118,0.972 10.313,2.905 3.196,1.938 5.956,4.503 8.28,7.699 2.324,3.195 4.163,6.826 5.52,10.895 1.353,4.066 2.033,8.234 2.033,12.492 z m -2.033,-97.325 c -1.357,4.066 -3.196,7.698 -5.52,10.894 -2.324,3.196 -5.084,5.766 -8.28,7.699 -3.195,1.938 -6.636,2.905 -10.313,2.905 -3.877,0 -7.408,-1.017 -10.604,-3.051 -3.196,-2.033 -5.911,-4.693 -8.135,-7.988 -2.229,-3.292 -3.972,-6.974 -5.229,-11.041 -1.262,-4.066 -1.888,-8.034 -1.888,-11.911 0,-4.647 0.581,-9.006 1.743,-13.073 1.162,-4.066 2.855,-7.648 5.084,-10.749 2.224,-3.097 4.939,-5.565 8.134,-7.408 3.196,-1.839 6.827,-2.76 10.895,-2.76 3.486,0 6.827,1.066 10.022,3.194 3.196,2.135 5.956,4.845 8.28,8.136 2.324,3.296 4.212,6.972 5.666,11.04 1.453,4.066 2.179,7.943 2.179,11.62 -10e-4,4.263 -0.681,8.426 -2.034,12.493 z m 99.647,-74.664 c -40.673,0 -61.009,15.397 -61.009,46.193 V 487.02 c 0,5.62 1.743,10.895 5.229,15.834 3.486,4.938 7.989,9.201 13.509,12.782 5.52,3.586 11.812,6.441 18.884,8.57 7.067,2.135 14.281,3.196 21.644,3.196 9.296,0 17.817,-0.967 25.565,-2.905 7.744,-1.934 14.381,-4.648 19.901,-8.135 5.52,-3.487 9.778,-7.699 12.783,-12.638 3,-4.938 4.503,-10.504 4.503,-16.705 V 334.207 c 0,-26.728 -20.337,-40.092 -61.009,-40.092 z m 39.51,176.928 c 0,4.262 -0.726,8.184 -2.179,11.766 -1.453,3.586 -3.341,6.682 -5.666,9.297 -2.324,2.613 -5.039,4.647 -8.134,6.1 -3.1,1.453 -6.201,2.18 -9.296,2.18 -17.241,0 -25.856,-5.615 -25.856,-16.85 v -42.998 c 0,-1.742 -1.067,-4.066 -3.196,-6.973 -2.134,-2.904 -4.408,-5.76 -6.827,-8.57 -2.424,-2.805 -4.698,-5.274 -6.827,-7.408 -2.134,-2.129 -3.196,-3.387 -3.196,-3.777 -2.715,-3.485 -4.458,-6.436 -5.229,-8.859 -0.776,-2.42 -1.162,-6.052 -1.162,-10.895 0,-15.493 0.481,-28.276 1.453,-38.35 0.967,-10.068 2.805,-18.107 5.52,-24.113 2.71,-6.001 6.632,-10.168 11.766,-12.492 5.129,-2.324 11.862,-3.486 20.191,-3.486 25.756,0 38.639,11.525 38.639,34.572 v 120.856 z m 96.45,-175.766 c -10.458,0 -19.37,0.871 -26.728,2.614 -7.363,1.743 -13.318,4.407 -17.867,7.989 -4.553,3.586 -7.844,8.279 -9.878,14.091 -2.034,5.81 -3.05,12.782 -3.05,20.917 v 172.859 c 0,8.911 3.291,13.365 9.878,13.365 7.744,0 11.621,-6.197 11.621,-18.594 v -61.881 c 0,-5.42 0.967,-10.168 2.905,-14.236 1.934,-4.066 5.129,-7.408 9.587,-10.022 4.453,-2.614 10.214,-4.548 17.286,-5.811 7.068,-1.257 15.733,-1.888 26.002,-1.888 13.944,0 24.594,-5.18 31.957,-15.543 7.359,-10.359 11.04,-24.645 11.04,-42.853 0,-21.108 -4.843,-36.556 -14.526,-46.338 -9.687,-9.776 -25.761,-14.669 -48.227,-14.669 z m 39.22,73.792 c -1.357,4.067 -3.196,7.698 -5.52,10.895 -2.324,3.196 -5.084,5.716 -8.28,7.554 -3.195,1.843 -6.636,2.76 -10.313,2.76 -3.876,0 -7.363,-1.017 -10.459,-3.051 -3.1,-2.033 -5.811,-4.648 -8.135,-7.844 -2.324,-3.195 -4.117,-6.827 -5.375,-10.895 -1.262,-4.067 -1.888,-8.135 -1.888,-12.202 0,-4.647 0.581,-9.006 1.743,-13.073 1.162,-4.066 2.855,-7.648 5.084,-10.749 2.225,-3.097 4.939,-5.565 8.134,-7.408 3.196,-1.839 6.828,-2.76 10.895,-2.76 3.486,0 6.827,1.066 10.023,3.194 3.195,2.135 6.001,4.845 8.425,8.136 2.419,3.296 4.307,6.972 5.665,11.04 1.353,4.066 2.034,7.943 2.034,11.62 10e-4,4.458 -0.68,8.716 -2.033,12.783 z"
     id="path2"
     style="fill:#7bb8e4;fill-opacity:1"
     inkscape:export-filename="D:\path12.png"
     inkscape:export-xdpi="96"
     inkscape:export-ydpi="96" /><path
     fill="#7bb8e4"
     d="m 648.013,1157.053 -147.114,-6.146 -105.057,-78.619 128.122,12.1 c 0.135,0.738 0.27,1.455 0.401,2.146 2.061,10.41 4.75,15.732 4.75,15.732 0,0 14.595,33.875 59.177,22.004 0,0 -0.992,-5.227 -2.068,-13.918 l 0.012,-0 z m 200.67,35.404 -0.011,0.012 c 5.889,6.48 9.712,10.178 9.712,10.178 -29.602,35.402 -61.038,16.123 -61.038,16.123 0,0 -4.694,-3.197 -11.862,-11.266 -0.012,0 -0.012,0 -0.012,0 -0.365,-0.414 -0.743,-0.838 -1.109,-1.275 l -113.216,64.838 131.167,3.711 123.765,-79.744 z"
     id="path4"
     inkscape:export-filename="D:\path12.png"
     inkscape:export-xdpi="96"
     inkscape:export-ydpi="96" /><path
     fill="#2075bc"
     d="m 802.313,1274.779 3.857,43.498 c 0,0 -129.58,-3.547 -131.167,-3.713 1.071,-0.094 -3.857,-43.496 -3.857,-43.496 z M 395.842,1072.287 c 0,0 -20.979,38.322 -21.918,37.781 -0.928,-0.539 105.068,78.619 105.068,78.619 l 21.906,-37.781 z"
     id="path6"
     inkscape:export-filename="D:\path12.png"
     inkscape:export-xdpi="96"
     inkscape:export-ydpi="96" /><path
     fill="#7bb8e4"
     d="m 470.995,630.396 c 6.178,-14.333 14.33,-28.112 25.031,-38.798 32.404,5.584 44.146,36.264 44.146,36.264 l 0.499,0.73 c -8.486,5.902 -16.178,13.623 -22.074,23.719 -1.188,-1.877 -16.455,-24.818 -47.602,-21.915 z m 468.812,119.303 c 0,0 10.363,25.98 6.987,41.084 l -14.758,2.506 c 0,0 -1.979,15.531 -6.982,24.975 l 11.382,8.633 c 0,0 -7.849,23.795 -21.521,32.727 l -13.301,-8.311 c 0,0 -8.958,9.451 -22.642,14.43 l 2.402,14.111 c 0,0 -28.43,11.449 -39.801,6.779 l -1.535,-12.943 c 0,0 -23.784,-3.885 -27.008,-7.295 l -8.414,12.652 c 0,0 -24.869,-10.299 -32.078,-21.613 l 8.726,-14.699 c 0,0 -10.631,-8.102 -14.847,-21.254 l -16.477,0.207 c 0,0 -9.721,-22.168 -6.344,-37.271 l 15.938,-3.373 c 0,0 0.695,-15.313 4.729,-26.568 l -10.631,-8.102 c 0,0 8.381,-20.58 21.406,-33.361 l 13.405,8.947 c 0,0 10.886,-9.787 22.652,-14.422 l -2.518,-14.768 c 0,0 26.084,-9.729 39.801,-6.779 l 2.403,14.133 c 0,0 17.992,0.893 26.891,6.648 l 8.53,-12.018 c 0,0 22.396,7.41 32.944,22.793 l -9.062,12.77 c 0,0 10.839,9.385 14.951,21.891 z m -46.795,27.778 c -4.583,-26.939 -30.146,-45.072 -57.085,-40.479 -26.949,4.584 -45.072,30.135 -40.489,57.086 4.584,26.949 30.146,45.072 57.098,40.488 26.936,-4.595 45.059,-30.144 40.476,-57.095 z m 180.905,-139.422 c -10.684,2.941 -20.905,4.225 -29.015,4.721 l 0,0.022 c 0,0 -2.573,37.381 15.288,54.918 19.131,-2.412 35.602,-7.439 48.964,-12.988 -29.759,-12.128 -34.655,-42.079 -35.239,-46.673 z m -446.128,231.57 -2.071,-0.332 c -10.578,6.781 -23.008,16.363 -35.656,29.699 l 0.089,0.072 c 0,0 -0.081,21.053 38.538,43.801 12.248,-13.756 25.109,-24.422 37.773,-32.689 -40.137,-14.33 -38.673,-40.551 -38.673,-40.551 z m 188.953,79.227 c 8.585,-12.727 17.563,-22.473 24.992,-29.443 -29.398,1.047 -56.955,-19.713 -56.955,-19.713 -5.431,7.283 -13.341,18.625 -21.599,32.92 l 0.012,-0.002 c 0,-10e-4 25.079,21.544 53.55,16.238 z m 309.71,-348.068 c -6.278,10.563 -14.535,18.51 -23.602,24.488 l 1.968,-0.034 c 0,0 11.595,30.739 43.979,36.491 10.752,-10.644 18.977,-24.383 25.228,-38.687 -32.067,2.843 -47.174,-21.602 -47.573,-22.258 z m 19.254,-79.733 c 1.034,11.664 11.336,20.275 22.999,19.241 11.661,-1.034 20.274,-11.323 19.24,-22.987 -1.035,-11.674 -11.324,-20.287 -22.987,-19.252 -11.662,1.033 -20.287,11.324 -19.252,22.998 z m -351.495,592.793 1.835,-0.738 c -4.953,-12.066 -8.492,-24.586 -9.594,-37.006 -31.947,12.125 -58.576,-11.006 -59.441,-11.773 0.605,8.814 1.957,17.705 4.175,26.576 2.503,9.973 5.155,19.238 7.923,27.828 -0.001,-10e-4 20.453,12.626 55.102,-4.887 z m -210.348,-58.948 c -45.538,9.951 -58.864,-19.943 -58.864,-19.943 l -0.844,-0.123 c -3.314,21.621 -2.193,38.238 -0.191,49.557 0.135,0.738 0.27,1.455 0.401,2.146 l 1.544,-0.313 c 0,0 26.777,20.969 59.517,16.986 -1.296,-12.636 -2.363,-29.821 -1.563,-48.31 z m 160.079,-83.117 h -0.012 c -5.759,14.166 -10.691,29.584 -13.799,45.732 0,0 12.066,17.266 56.743,13.607 1.531,-13.414 4.282,-25.648 7.848,-36.768 -42.614,0.847 -50.78,-22.571 -50.78,-22.571 z m 15.43,-89.916 0.208,-0.828 -80.463,-20.49 c 0,0 9.378,20.168 32.26,27.77 l 0.216,0.721 c 27.629,-8.448 47.779,-7.173 47.779,-7.173 z M 499.808,732.26 c -1.094,-11.67 -11.437,-20.23 -23.095,-19.139 -11.658,1.091 -20.232,11.426 -19.139,23.084 1.092,11.658 11.437,20.23 23.095,19.139 11.658,-1.094 20.221,-11.426 19.139,-23.084 z m 537.968,-447.744 -2.104,13.044 -19.886,123.393 c -6.625,70.669 -97.296,48.702 -97.296,48.702 l -39.641,-7.148 -69.898,-12.617 -39.354,-7.104 c -91.875,-10.797 -68.35,-65.92 -68.35,-65.92 l 0.159,-0.848 23.354,-122.773 h 0.012 l 3.599,-18.949 c 12.926,-67.885 63.495,-52.978 63.495,-52.978 l 193.974,30.144 c 72.754,8.705 51.936,73.054 51.936,73.054 z m -221.854,20.426 c 10.277,-0.911 17.884,-9.985 16.972,-20.274 -0.913,-10.29 -9.997,-17.884 -20.275,-16.972 -10.289,0.912 -17.884,9.985 -16.972,20.275 0.913,10.289 9.985,17.883 20.275,16.971 z m 113.603,82.391 -31.625,17.093 -78.638,-7.314 c -19.078,6.172 1.244,14.025 1.244,14.025 l 78.632,7.256 31.644,-16.884 c 21.834,-18.36 -1.257,-14.176 -1.257,-14.176 z m 40.764,-89.042 c -1.482,-16.714 -16.232,-29.062 -32.947,-27.579 -16.715,1.483 -29.062,16.232 -27.579,32.947 1.483,16.715 16.232,29.061 32.947,27.579 16.715,-1.483 29.061,-16.233 27.579,-32.947 z M 507.27,711.76 c -0.767,-10.631 -0.404,-20.164 0.88,-28.701 -0.931,-0.703 -23.948,-17.783 -51.276,-6.609 -3.818,18.451 -4.786,32.018 -4.826,32.49 5.895,-6.025 13.865,-10.064 22.917,-10.914 12.867,-1.2 24.807,4.333 32.305,13.734 z m 35.252,120.648 c 32.899,-103.512 -33.646,-120.25 -35.228,-120.627 1.36,1.721 2.579,3.561 3.634,5.521 2.262,4.209 3.75,8.945 4.223,14.018 1.365,14.604 -5.974,28.018 -17.758,35.092 l 0.941,0.033 c 25.662,17.527 1.48,62.982 1.48,62.982 z m 28.481,-217.627 c 10.751,-2.983 21.01,-4.245 29.015,-4.72 l -0.005,-0.059 c 0,0 2.388,-37.364 -15.537,-54.814 -19.124,2.482 -35.576,7.59 -48.92,13.208 29.56,11.89 34.77,41.401 35.447,46.385 z M 1251.06,441.65 1211.841,436.6 c 0,0 14.293,47.533 -16.131,58.725 4.514,5.524 7.482,12.405 8.16,20.053 0.997,11.244 -3.161,21.76 -10.514,29.205 83.793,-7.444 57.704,-102.933 57.704,-102.933 z m -120.706,80.247 c -1.266,-14.27 5.772,-27.364 17.116,-34.518 l -0.128,-0.517 c -25.579,-17.651 -1.176,-62.985 -1.176,-62.985 l -42.69,-3.194 c -33.802,104.589 34.657,120.808 34.657,120.808 -1.361,-1.721 -2.582,-3.584 -3.624,-5.544 -2.251,-4.224 -3.704,-8.975 -4.155,-14.05 z m -260.691,-17.739 0.864,0.088 c 0.638,-6.028 1.733,-12.46 2.908,-18.395 l -1.636,-0.324 c -14.342,-15.011 -58.297,-15.395 -67.405,-15.313 -0.929,5.396 -1.951,12.115 -3.046,20.412 2.974,-0.475 38.926,-5.67 68.315,13.532 z m 268.471,37.333 c 0.72,10.635 0.31,20.162 -1.033,28.692 0,0 23.312,18.146 51.266,6.879 3.913,-18.437 4.939,-31.994 4.98,-32.468 -5.922,5.992 -13.919,9.998 -22.975,10.801 -12.873,1.143 -24.785,-4.465 -32.238,-13.904 z M 949.807,620.65 c 0,0 3.457,11.202 1.543,17.401 l -6.262,0.555 c 0,0 -1.343,6.419 -3.753,10.199 l 4.472,3.99 c 0,0 -4.081,9.677 -10.09,12.955 l -5.286,-3.918 c 0,0 -4.053,3.645 -9.938,5.27 l 0.529,5.971 c 0,0 -12.271,3.832 -16.865,1.494 l -0.202,-5.459 c 0,0 -9.811,-2.414 -11.038,-3.949 l -3.943,5.008 c 0,0 -10.052,-5.139 -12.687,-10.113 l 4.15,-5.848 c 0,0 -4.168,-3.748 -5.5,-9.378 l -6.882,-0.47 c 0,0 -3.326,-9.594 -1.399,-15.783 l 6.762,-0.881 c 0,0 0.807,-6.371 2.877,-10.941 l -4.18,-3.736 c 0,0 4.2,-8.326 10.065,-13.233 l 5.311,4.198 c 0,0 4.879,-3.729 9.938,-5.27 l -0.555,-6.25 c 0,0 11.237,-3.19 16.866,-1.496 l 0.529,5.971 c 0,0 7.49,0.99 11.015,3.693 l 3.967,-4.739 c 0,0 9.105,3.85 12.99,10.626 l -4.21,5.03 c 0,0 4.216,4.295 5.514,9.659 z m -20.484,10.04 c -1.013,-11.418 -11.087,-19.852 -22.506,-18.839 -11.406,1.012 -19.84,11.086 -18.827,22.505 1.012,11.406 11.087,19.839 22.493,18.827 11.419,-1.013 19.852,-11.087 18.84,-22.493 z m -269.977,4.939 c 0,0 -5.414,-38.562 2.724,-53.021 l 23.303,3.494 c 0,0 4.992,-13.688 10.141,-19.928 l -9.291,-17.711 c 0,0 17.406,-22.519 42.313,-23.578 l 9.484,17.659 c 0,0 13.949,-4.217 22.17,-1.216 l 11.107,-19.333 c 0,0 29.782,2.744 45.697,27.176 l -12.14,17.078 c 0,0 8.197,14.652 9.729,20.934 l 22.323,2.9 c 0,0 11.393,26.347 -0.727,48.42 l -21.304,-2.111 c 0,0 -6.044,16.245 -12.92,18.743 l 13.196,20.086 c 0,0 -20.574,26.625 -43.515,27.205 l -10.834,-21.494 c 0,0 -15.502,1.27 -22.741,-1.139 l -10.129,19.926 c 0,0 -30.742,-6.682 -44.345,-25.006 l 10.969,-16.799 c 0,0 -9.995,-10.059 -10.505,-22.413 z m 70.614,-18.334 c 2.846,11.713 14.651,18.9 26.365,16.056 11.713,-2.845 18.902,-14.64 16.057,-26.353 -2.845,-11.713 -14.641,-18.914 -26.354,-16.069 -11.713,2.846 -18.914,14.653 -16.068,26.366 z M 561.048,937.051 c -4.264,6.959 -8.395,14.482 -12.32,22.596 -4.145,8.568 -7.699,16.766 -10.711,24.6 l 0.947,0.375 c 0,0 9.641,24.438 48.057,30.086 l 2.038,-0.039 c 2.899,-12.541 7.188,-24.629 13.366,-35.277 -29.401,-7.552 -39.345,-35.423 -41.377,-42.341 z m 196.308,227.244 c 9.891,19.992 19.622,33.418 27.006,41.936 0.366,0.438 0.744,0.861 1.109,1.275 0,0 0,0 0.012,-0 0.801,0.035 34.229,1.434 58.417,-20.418 -8.334,-9.586 -19.121,-23.012 -29.113,-38.584 -31.476,34.371 -57.431,15.793 -57.431,15.793 z m -362.517,-352.127 39.236,4.85 c 0,0 -14.52,-47.457 15.844,-58.795 -4.537,-5.51 -7.539,-12.377 -8.251,-20.02 -1.043,-11.24 3.055,-21.775 10.369,-29.252 -83.757,7.852 -57.198,103.217 -57.198,103.217 z"
     id="path8"
     inkscape:export-filename="D:\path12.png"
     inkscape:export-xdpi="96"
     inkscape:export-ydpi="96" /><path
     fill="#2a3990"
     d="m 1203.87,515.377 c -0.678,-7.647 -3.646,-14.528 -8.16,-20.053 -7.464,-9.156 -19.205,-14.567 -31.857,-13.445 -6.03,0.535 -11.594,2.482 -16.382,5.5 -11.344,7.153 -18.382,20.248 -17.116,34.518 0.45,5.075 1.903,9.826 4.155,14.05 1.042,1.96 2.263,3.823 3.624,5.544 7.453,9.439 19.365,15.047 32.238,13.904 9.056,-0.803 17.053,-4.809 22.975,-10.801 l -0,-0.012 h 0.012 c 7.352,-7.445 11.51,-17.96 10.513,-29.205 z m -35.165,24.915 c -11.663,1.034 -21.965,-7.577 -22.999,-19.241 -1.035,-11.674 7.59,-21.965 19.252,-22.998 11.663,-1.035 21.952,7.578 22.987,19.252 1.034,11.664 -7.579,21.953 -19.24,22.987 z m -242.627,654.743 3.543,39.947 -123.45,83.295 -3.857,-43.498 z M 481.844,771.51 c 5.688,-0.539 10.961,-2.332 15.549,-5.098 11.784,-7.074 19.123,-20.488 17.758,-35.092 -0.473,-5.072 -1.961,-9.809 -4.223,-14.018 -1.055,-1.961 -2.273,-3.801 -3.634,-5.521 l -0.012,0.002 c -0.013,-0.012 -0.013,-0.012 -0.013,-0.012 l -0.001,-0.012 c -7.497,-9.4 -19.438,-14.934 -32.306,-13.734 -9.052,0.85 -17.022,4.889 -22.917,10.914 l 10e-4,0.01 -0.011,0.002 c -7.314,7.477 -11.413,18.012 -10.369,29.252 0.713,7.643 3.715,14.51 8.251,20.02 7.521,9.117 19.28,14.466 31.927,13.287 z m -24.27,-35.305 c -1.093,-11.658 7.481,-21.992 19.139,-23.084 11.658,-1.092 22.001,7.469 23.095,19.139 1.082,11.658 -7.48,21.99 -19.139,23.084 -11.658,1.092 -22.003,-7.481 -23.095,-19.139 z m 266.159,-483.162 1.027,0.201 -23.354,122.773 -1.337,-0.256 -19.867,-29.971 1.633,-8.439 10.119,-52.433 3.327,-17.247 z m 311.939,44.517 21.711,23.507 -2.79,17.34 -8.499,52.724 -1.371,8.485 -28.937,21.337 z m -104.89,103.949 -31.644,16.884 -78.632,-7.256 c 0,0 -20.322,-7.854 -1.244,-14.025 l 78.638,7.314 31.625,-17.094 c 0,0.001 23.091,-4.183 1.257,14.177 z m -429.884,749.397 147.114,6.146 -20.128,34.691 -148.893,-3.057 z M 970.289,298.291 c 1.482,16.715 -10.864,31.465 -27.579,32.947 -16.715,1.481 -31.464,-10.864 -32.947,-27.579 -1.482,-16.715 10.864,-31.465 27.579,-32.947 16.715,-1.482 31.465,10.865 32.947,27.579 z m -174.643,-10.32 c -0.912,-10.29 6.683,-19.363 16.972,-20.275 10.278,-0.912 19.362,6.682 20.275,16.972 0.912,10.289 -6.694,19.363 -16.972,20.274 -10.289,0.912 -19.361,-6.682 -20.275,-16.971 z M 973.981,74.034 c 0.984,11.104 -7.459,21.191 -18.563,22.176 -11.104,0.985 -21.192,-7.46 -22.176,-18.563 -0.984,-11.105 7.458,-21.191 18.563,-22.176 11.105,-0.986 21.19,7.458 22.176,18.563 z"
     id="path10"
     inkscape:export-filename="D:\path12.png"
     inkscape:export-xdpi="96"
     inkscape:export-ydpi="96" /><path
     fill="#2075bc"
     d="m 893.012,777.477 c 4.583,26.951 -13.54,52.5 -40.477,57.096 -26.951,4.584 -52.514,-13.539 -57.098,-40.488 -4.583,-26.951 13.54,-52.502 40.489,-57.086 26.939,-4.595 52.503,13.538 57.086,40.478 z M 887.99,634.356 c 1.012,11.406 11.087,19.839 22.493,18.827 11.419,-1.013 19.852,-11.087 18.84,-22.493 -1.013,-11.418 -11.087,-19.852 -22.506,-18.839 -11.406,1.012 -19.839,11.086 -18.827,22.505 z M 746.028,590.929 c -11.713,2.846 -18.914,14.652 -16.068,26.366 2.846,11.713 14.651,18.9 26.365,16.056 11.713,-2.845 18.902,-14.64 16.057,-26.353 -2.845,-11.713 -14.641,-18.914 -26.354,-16.069 z M 908.785,218.208 c 4.065,3.366 9.32,-2.905 5.252,-6.272 -10.912,-9.037 -23.032,-16.958 -32.746,-27.321 21.862,-2.275 44.056,-0.714 65.639,-5.538 1.962,-0.438 4.217,-2.052 3.713,-4.436 -2.01,-9.542 -8.738,-17.196 -15.082,-24.265 -7.825,-8.723 -16.521,-16.779 -23.337,-26.356 -16.254,-22.841 20.815,-28.352 34.864,-34.843 4.752,-2.195 1.937,-9.883 -2.862,-7.665 -15.905,7.349 -52.657,12.784 -43.216,39.049 3.774,10.504 13.418,19.114 20.876,27.025 6.354,6.737 15.926,15.017 19.545,24.304 -22.618,4.11 -45.826,2.076 -68.549,5.541 -2.896,0.441 -4.995,3.847 -2.974,6.443 10.754,13.813 25.538,23.286 38.877,34.334 z m -322.561,892.144 c 1.076,8.691 2.068,13.918 2.068,13.918 -44.582,11.871 -59.177,-22.004 -59.177,-22.004 0,0 -2.689,-5.322 -4.75,-15.732 l 1.544,-0.313 c 0,0 26.777,20.969 59.517,16.986 0.264,2.582 0.535,4.975 0.798,7.145 z m 0.797,-95.645 2.038,-0.039 c -3.092,13.283 -4.613,27.084 -5.195,40.229 C 538.326,1064.848 525,1034.954 525,1034.954 l -0.844,-0.123 c 2.225,-14.604 6.486,-31.488 13.861,-50.584 l 0.947,0.375 c 0,-10e-4 9.64,24.437 48.057,30.085 z m 41.667,-71.842 c -9.207,10.33 -18.072,22.414 -26.264,36.525 -29.4,-7.551 -39.345,-35.422 -41.377,-42.34 9.303,-15.207 19.218,-27.748 29.014,-38.059 l 0.089,0.072 c 0,10e-4 -0.081,21.054 38.538,43.802 z m 128.668,221.43 c -6.188,-12.484 -12.449,-27.545 -18.248,-45.564 0,0 20.453,12.627 55.103,-4.887 l 1.835,-0.738 c 5.105,12.463 11.73,24.463 18.741,35.396 -31.476,34.371 -57.431,15.793 -57.431,15.793 z m 431.01,-587.233 c -2.911,13.737 -7.434,30.21 -14.341,45.979 -32.067,2.844 -47.175,-21.602 -47.573,-22.258 5,-8.433 8.751,-18.525 10.648,-30.601 0,10e-4 23.312,18.147 51.266,6.88 z m -506.531,-239.71 -10.742,-11.471 6.655,-34.61 14.206,-6.352 z M 518.597,652.311 c -4.951,8.463 -8.626,18.607 -10.447,30.748 -0.931,-0.703 -23.948,-17.783 -51.276,-6.609 2.85,-13.768 7.289,-30.244 14.122,-46.053 31.146,-2.904 46.413,20.037 47.601,21.914 z m 526.307,-9.513 -0,-0.022 c -10.405,0.652 -17.348,0.024 -17.348,0.024 18.716,-94.523 -70.765,-103.997 -70.765,-103.997 l -86.33,-17.459 c -0.816,-4.445 -0.642,-10.537 0.067,-17.099 l -0.864,-0.088 c -29.389,-19.202 -65.341,-14.007 -68.314,-13.532 -0.635,4.877 -1.304,10.298 -1.977,16.328 l -79.963,-16.17 c -54.535,-6.719 -79.128,34.245 -89.687,64.005 l -0.69,-0.243 c -16.096,-1.6 -31.001,-1.146 -44.557,0.643 17.925,17.45 15.537,54.814 15.537,54.814 l 0.005,0.059 c 7.994,-0.475 13.756,-0.188 15.573,-0.067 L 588,716.355 c -30.022,111.211 51.665,134.139 51.665,134.139 l 15.976,4.074 c 0,0 -12.429,3.506 -29.923,14.725 l 2.071,0.332 c 0,0 -1.464,26.221 38.673,40.551 15.859,-10.334 31.428,-16.936 45.131,-21.141 l -0.216,-0.721 c -22.882,-7.602 -32.26,-27.77 -32.26,-27.77 l 80.463,20.49 32.646,8.309 -0.313,1.236 c 0,0 -2.752,3.236 -7.134,9.115 0,0 27.557,20.76 56.955,19.713 8.534,-7.996 15.026,-12.324 16.48,-13.252 l 6.336,1.607 c 114.026,32.66 128.484,-95.318 128.484,-95.318 l 22.568,-114.316 c 16.092,1.682 31.015,1.297 44.589,-0.412 -17.86,-17.536 -15.287,-54.918 -15.287,-54.918 z m -316.971,56.923 c 0,0 -30.742,-6.682 -44.345,-25.006 l 10.969,-16.799 c 0,0 -9.995,-10.059 -10.505,-22.413 l -24.706,0.127 c 0,0 -5.414,-38.562 2.724,-53.021 l 23.303,3.494 c 0,0 4.992,-13.688 10.141,-19.928 l -9.291,-17.711 c 0,0 17.406,-22.519 42.313,-23.578 l 9.484,17.659 c 0,0 13.949,-4.217 22.17,-1.216 l 11.107,-19.333 c 0,0 29.782,2.744 45.697,27.176 l -12.14,17.078 c 0,0 8.197,14.652 9.729,20.934 l 22.323,2.9 c 0,0 11.393,26.347 -0.727,48.42 l -21.304,-2.111 c 0,0 -6.044,16.245 -12.92,18.743 l 13.196,20.086 c 0,0 -20.574,26.625 -43.515,27.205 l -10.834,-21.494 c 0,0 -15.502,1.27 -22.741,-1.139 z m 218.861,91.062 -14.758,2.506 c 0,0 -1.979,15.531 -6.982,24.975 l 11.382,8.633 c 0,0 -7.849,23.795 -21.521,32.727 l -13.301,-8.311 c 0,0 -8.958,9.451 -22.642,14.43 l 2.402,14.111 c 0,0 -28.43,11.449 -39.801,6.779 l -1.535,-12.943 c 0,0 -23.784,-3.885 -27.008,-7.295 l -8.414,12.652 c 0,0 -24.869,-10.299 -32.078,-21.613 l 8.726,-14.699 c 0,0 -10.631,-8.102 -14.847,-21.254 l -16.477,0.207 c 0,0 -9.721,-22.168 -6.344,-37.271 l 15.938,-3.373 c 0,0 0.695,-15.313 4.729,-26.568 l -10.631,-8.102 c 0,0 8.381,-20.58 21.406,-33.361 l 13.405,8.947 c 0,0 10.886,-9.787 22.652,-14.422 l -2.518,-14.768 c 0,0 26.084,-9.729 39.801,-6.779 l 2.403,14.133 c 0,0 17.992,0.893 26.891,6.648 l 8.53,-12.018 c 0,0 22.396,7.41 32.944,22.793 l -9.062,12.77 c 0,0 10.839,9.385 14.951,21.891 l 14.77,-2.508 c 0.002,-0.001 10.365,25.98 6.989,41.083 z m 4.556,-152.732 -6.262,0.555 c 0,0 -1.343,6.419 -3.753,10.199 l 4.472,3.99 c 0,0 -4.081,9.677 -10.09,12.955 l -5.286,-3.918 c 0,0 -4.053,3.645 -9.938,5.27 l 0.529,5.971 c 0,0 -12.271,3.832 -16.865,1.494 l -0.202,-5.459 c 0,0 -9.811,-2.414 -11.038,-3.949 l -3.943,5.008 c 0,0 -10.052,-5.139 -12.687,-10.113 l 4.15,-5.848 c 0,0 -4.168,-3.748 -5.5,-9.378 l -6.882,-0.47 c 0,0 -3.326,-9.594 -1.399,-15.783 l 6.762,-0.881 c 0,0 0.807,-6.371 2.877,-10.941 l -4.18,-3.736 c 0,0 4.2,-8.326 10.065,-13.233 l 5.311,4.198 c 0,0 4.879,-3.729 9.938,-5.27 l -0.555,-6.25 c 0,0 11.237,-3.19 16.866,-1.496 l 0.529,5.971 c 0,0 7.49,0.99 11.015,3.693 l 3.967,-4.739 c 0,0 9.105,3.85 12.99,10.626 l -4.21,5.03 c 0,0 4.216,4.295 5.514,9.659 l 6.262,-0.556 c 0,0 3.457,11.202 1.543,17.401 z m 197.448,23.678 c 0,0 -14.229,12.453 -39.642,23 -29.759,-12.129 -34.655,-42.08 -35.239,-46.673 9.677,-2.676 19.724,-6.711 28.934,-12.783 l 1.968,-0.034 c -10e-4,-10e-4 11.594,30.738 43.979,36.49 z m -421.787,402.597 c -1.111,-15.961 0.203,-31.703 3.121,-46.814 0,0 12.066,17.266 56.743,13.607 -1.574,13.75 -1.864,28.73 -0.423,44.98 -31.947,12.126 -58.576,-11.005 -59.441,-11.773 z m 131.373,138.32 c -29.602,35.402 -61.038,16.123 -61.038,16.123 0,0 -4.694,-3.197 -11.862,-11.266 0.801,0.035 34.229,1.434 58.417,-20.418 1.711,1.959 3.313,3.752 4.771,5.383 5.889,6.481 9.712,10.178 9.712,10.178 z M 804.395,470.213 c 2.412,-14.081 4.147,-19.244 4.557,-20.324 l 69.898,12.617 -0.181,1.002 c 0,0 -2.799,10.103 -5.233,22.343 l -1.636,-0.324 c -14.342,-15.011 -58.297,-15.395 -67.405,-15.314 z m 250.198,-131.806 11.156,10.848 -5.631,34.79 -14.024,7.086 z M 743.942,971.779 h -0.012 c 5.912,-14.555 12.692,-27.791 19.25,-39.164 l 0.012,-0.002 c 0,0 25.079,21.545 53.55,16.238 -8.305,12.316 -16.232,27.426 -22.02,45.5 -42.614,0.846 -50.78,-22.572 -50.78,-22.572 z M 496.026,591.598 c 0,0 14.163,-12.518 39.529,-23.202 29.561,11.89 34.771,41.401 35.447,46.385 -10.157,2.802 -20.752,7.144 -30.332,13.812 l -0.499,-0.73 c 10e-4,-0.001 -11.74,-30.681 -44.145,-36.265 z M 892.819,52.637 c 9.032,1.104 17.752,3.615 26.225,6.887 4.921,1.9 1.414,9.293 -3.488,7.399 -7.829,-3.022 -15.864,-5.218 -24.207,-6.237 -5.236,-0.639 -3.75,-8.686 1.47,-8.049 z m 29.35,-48.579 c -1.231,-5.069 6.425,-7.976 7.666,-2.864 2.95,12.148 7.285,23.898 10.234,36.044 1.233,5.071 -6.423,7.976 -7.663,2.864 C 929.455,27.955 925.12,16.205 922.169,4.058 Z M 970.23,38.03 c 6.036,-9.2 11.325,-18.877 16.162,-28.754 2.316,-4.729 9.726,-1.263 7.4,3.488 -5.151,10.516 -10.865,20.723 -17.291,30.517 -2.892,4.408 -9.132,-0.89 -6.271,-5.251 z m 19.654,37.673 c 10.054,0.773 20.113,1.535 30.144,2.604 5.242,0.561 3.752,8.606 -1.47,8.049 -10.031,-1.07 -20.091,-1.832 -30.145,-2.605 -5.249,-0.404 -3.745,-8.45 1.471,-8.048 z m -22.699,34.438 c -3.255,-4.174 3.441,-8.881 6.67,-4.737 3.801,4.876 6.42,10.392 8.875,16.03 2.112,4.852 -5.57,7.675 -7.664,2.864 -2.188,-5.024 -4.495,-9.814 -7.881,-14.157 z"
     id="path12"
     inkscape:export-filename="D:\path12.png"
     inkscape:export-xdpi="96"
     inkscape:export-ydpi="96" /></g>
<g
   id="g980"
   transform="matrix(0.72031447,0,0,0.7524273,187.60953,163.00104)"
   inkscape:export-filename="D:\g966.png"
   inkscape:export-xdpi="49.310001"
   inkscape:export-ydpi="49.310001"><path
     fill="#2A3990"
     d="m 188.064,134.107 c 2.324,-1.934 4.889,-4.549 7.699,-7.845 2.806,-3.291 5.375,-7.89 7.699,-13.8 2.324,-5.906 3.486,-14.281 3.486,-25.13 0,-21.108 -4.844,-36.556 -14.526,-46.338 -9.687,-9.778 -25.76,-14.671 -48.226,-14.671 -10.654,0 -19.61,0.871 -26.873,2.614 -7.263,1.743 -13.174,4.407 -17.722,7.989 -4.553,3.586 -7.844,8.279 -9.878,14.09 -2.034,5.811 -3.05,12.783 -3.05,20.918 v 140.611 c 0,8.135 1.017,15.107 3.05,20.918 2.033,5.811 5.325,10.509 9.878,14.09 4.548,3.586 10.458,6.246 17.722,7.99 7.263,1.742 16.219,2.614 26.873,2.614 11.23,0 20.817,-1.208 28.762,-3.632 7.939,-2.419 14.426,-6.101 19.464,-11.039 5.035,-4.939 8.716,-11.23 11.04,-18.885 2.324,-7.648 3.486,-16.8 3.486,-27.453 0,-10.65 -1.162,-18.93 -3.486,-24.84 -2.324,-5.906 -4.893,-10.604 -7.699,-14.091 -2.81,-3.485 -5.375,-6.341 -7.699,-8.57 -2.324,-2.224 -3.486,-4.983 -3.486,-8.28 0,-2.902 1.162,-5.322 3.486,-7.26 z m -2.615,63.043 c 0,3.876 -0.681,7.844 -2.034,11.91 -1.357,4.068 -3.246,7.75 -5.665,11.041 -2.424,3.295 -5.229,5.955 -8.425,7.988 -3.196,2.034 -6.537,3.051 -10.022,3.051 -4.068,0 -7.699,-0.916 -10.895,-2.76 -3.195,-1.838 -5.91,-4.309 -8.134,-7.408 -2.229,-3.096 -3.922,-6.682 -5.084,-10.75 -1.162,-4.066 -1.743,-8.425 -1.743,-13.072 0,-3.678 0.626,-7.555 1.888,-11.621 1.257,-4.068 3.05,-7.744 5.375,-11.04 2.324,-3.291 5.034,-6.001 8.134,-8.134 3.096,-2.13 6.583,-3.196 10.459,-3.196 3.677,0 7.118,0.972 10.313,2.905 3.196,1.938 5.956,4.503 8.28,7.699 2.324,3.195 4.163,6.826 5.52,10.894 1.353,4.068 2.033,8.236 2.033,12.493 z m -2.033,-97.325 c -1.357,4.067 -3.196,7.699 -5.52,10.895 -2.324,3.196 -5.084,5.766 -8.28,7.699 -3.195,1.938 -6.636,2.905 -10.313,2.905 -3.877,0 -7.408,-1.018 -10.604,-3.051 -3.196,-2.033 -5.911,-4.693 -8.135,-7.989 -2.229,-3.292 -3.972,-6.973 -5.229,-11.04 -1.262,-4.066 -1.888,-8.035 -1.888,-11.911 0,-4.648 0.581,-9.007 1.743,-13.073 1.162,-4.067 2.855,-7.649 5.084,-10.75 2.224,-3.096 4.939,-5.564 8.134,-7.408 3.196,-1.838 6.827,-2.76 10.895,-2.76 3.486,0 6.827,1.066 10.022,3.195 3.196,2.135 5.956,4.844 8.28,8.135 2.324,3.296 4.212,6.973 5.666,11.041 1.453,4.066 2.179,7.943 2.179,11.62 -10e-4,4.263 -0.681,8.425 -2.034,12.492 z m 43.576,135.21 c -3.295,-4.748 -4.938,-9.936 -4.938,-15.564 V 69.084 c 0,-6.591 1.643,-12.605 4.938,-18.034 3.291,-5.429 7.744,-10.032 13.364,-13.813 5.615,-3.781 12.102,-6.74 19.465,-8.874 7.358,-2.134 15.107,-3.201 23.242,-3.201 7.745,0 14.912,0.735 21.499,2.198 6.583,1.461 12.297,3.508 17.141,6.141 4.838,2.633 8.616,5.901 11.33,9.801 2.71,3.904 4.067,8.293 4.067,13.169 0,2.533 -0.921,4.825 -2.76,6.872 -1.843,2.053 -3.631,3.074 -5.375,3.074 -3.295,0 -6.441,-1.018 -9.442,-3.051 -3.005,-2.034 -6.246,-4.309 -9.732,-6.828 -3.486,-2.514 -7.363,-4.793 -11.621,-6.826 -4.263,-2.034 -9.297,-3.051 -15.107,-3.051 -6.201,0 -11.721,1.212 -16.56,3.631 -4.844,2.425 -8.961,5.666 -12.347,9.733 -3.391,4.067 -6.005,8.86 -7.844,14.38 -1.843,5.521 -2.76,11.477 -2.76,17.867 0,5.229 0.872,10.414 2.615,15.543 1.743,5.135 4.212,9.833 7.408,14.09 3.196,4.263 6.922,7.699 11.185,10.314 4.258,2.614 9.006,3.922 14.235,3.922 h 35.444 c 13.75,0 20.627,3.972 20.627,11.911 0,5.038 -5.52,8.135 -16.56,9.297 -9.878,1.162 -17.917,2.665 -24.114,4.503 -6.201,1.843 -11.04,4.313 -14.526,7.408 -3.486,3.101 -5.91,7.022 -7.263,11.766 -1.357,4.748 -2.034,10.51 -2.034,17.287 0,4.066 0.626,8.088 1.888,12.057 1.257,3.972 3.05,7.508 5.375,10.604 2.324,3.1 5.084,5.619 8.28,7.553 3.196,1.939 6.728,2.906 10.604,2.906 3.291,0 6.342,-0.759 9.152,-2.279 2.805,-1.516 5.47,-3.132 7.989,-4.839 2.515,-1.707 4.939,-3.317 7.263,-4.839 2.324,-1.516 4.648,-2.279 6.973,-2.279 6.001,0 9.006,2.982 9.006,8.943 0,4.812 -1.407,9.188 -4.212,13.127 -2.81,3.945 -6.731,7.359 -11.766,10.242 -5.039,2.887 -10.994,5.098 -17.867,6.636 -6.877,1.539 -14.48,2.306 -22.806,2.306 -7.363,0 -14.526,-0.967 -21.499,-2.909 -6.973,-1.938 -13.219,-4.653 -18.739,-8.144 -5.519,-3.488 -9.927,-7.61 -13.218,-12.363 z m 130.734,0 c -3.295,-4.748 -4.938,-9.936 -4.938,-15.564 V 69.084 c 0,-6.591 1.643,-12.605 4.938,-18.034 3.291,-5.429 7.744,-10.032 13.364,-13.813 5.615,-3.781 12.102,-6.74 19.465,-8.874 7.358,-2.134 15.107,-3.201 23.242,-3.201 7.745,0 14.912,0.735 21.499,2.198 6.583,1.461 12.297,3.508 17.141,6.141 4.838,2.633 8.616,5.901 11.33,9.801 2.71,3.904 4.067,8.293 4.067,13.169 0,2.533 -0.921,4.825 -2.76,6.872 -1.843,2.053 -3.631,3.074 -5.375,3.074 -3.295,0 -6.441,-1.018 -9.442,-3.051 -3.005,-2.034 -6.246,-4.309 -9.732,-6.828 -3.486,-2.514 -7.363,-4.793 -11.621,-6.826 -4.263,-2.034 -9.297,-3.051 -15.107,-3.051 -6.201,0 -11.721,1.212 -16.56,3.631 -4.844,2.425 -8.961,5.666 -12.347,9.733 -3.391,4.067 -6.005,8.86 -7.844,14.38 -1.843,5.521 -2.76,11.477 -2.76,17.867 0,5.229 0.872,10.414 2.615,15.543 1.743,5.135 4.212,9.833 7.408,14.09 3.196,4.263 6.922,7.699 11.185,10.314 4.258,2.614 9.006,3.922 14.235,3.922 h 35.444 c 13.75,0 20.627,3.972 20.627,11.911 0,5.038 -5.52,8.135 -16.56,9.297 -9.878,1.162 -17.917,2.665 -24.114,4.503 -6.201,1.843 -11.04,4.313 -14.526,7.408 -3.486,3.101 -5.91,7.022 -7.263,11.766 -1.357,4.748 -2.034,10.51 -2.034,17.287 0,4.066 0.626,8.088 1.888,12.057 1.257,3.972 3.05,7.508 5.375,10.604 2.324,3.1 5.084,5.619 8.28,7.553 3.196,1.939 6.728,2.906 10.604,2.906 3.291,0 6.342,-0.759 9.152,-2.279 2.805,-1.516 5.47,-3.132 7.989,-4.839 2.515,-1.707 4.939,-3.317 7.263,-4.839 2.324,-1.516 4.648,-2.279 6.973,-2.279 6.001,0 9.006,2.982 9.006,8.943 0,4.812 -1.407,9.188 -4.212,13.127 -2.81,3.945 -6.731,7.359 -11.766,10.242 -5.039,2.887 -10.994,5.098 -17.867,6.636 -6.877,1.539 -14.48,2.306 -22.806,2.306 -7.363,0 -14.526,-0.967 -21.499,-2.909 -6.973,-1.938 -13.219,-4.653 -18.739,-8.144 -5.52,-3.488 -9.927,-7.61 -13.218,-12.363 z M 589.56,40.995 c -9.687,-9.778 -25.761,-14.671 -48.227,-14.671 -10.458,0 -19.37,0.871 -26.728,2.614 -7.363,1.743 -13.318,4.407 -17.867,7.989 -4.553,3.586 -7.844,8.279 -9.878,14.09 -2.034,5.811 -3.05,12.783 -3.05,20.918 v 172.859 c 0,8.91 3.291,13.364 9.878,13.364 7.744,0 11.621,-6.196 11.621,-18.593 v -61.881 c 0,-5.421 0.967,-10.168 2.905,-14.236 1.934,-4.067 5.129,-7.408 9.587,-10.022 4.453,-2.615 10.214,-4.549 17.286,-5.812 7.068,-1.257 15.733,-1.888 26.001,-1.888 13.945,0 24.594,-5.179 31.958,-15.542 7.357,-10.359 11.04,-24.645 11.04,-42.853 0,-21.106 -4.843,-36.554 -14.526,-46.336 z m -9.006,59.12 c -1.357,4.068 -3.196,7.699 -5.52,10.896 -2.324,3.196 -5.084,5.715 -8.28,7.554 -3.195,1.843 -6.636,2.76 -10.313,2.76 -3.876,0 -7.363,-1.018 -10.459,-3.051 -3.1,-2.033 -5.811,-4.648 -8.135,-7.844 -2.324,-3.196 -4.117,-6.827 -5.375,-10.895 -1.262,-4.068 -1.888,-8.135 -1.888,-12.202 0,-4.648 0.581,-9.007 1.743,-13.073 1.162,-4.067 2.855,-7.649 5.084,-10.75 2.225,-3.096 4.939,-5.564 8.134,-7.408 3.196,-1.838 6.828,-2.76 10.895,-2.76 3.486,0 6.827,1.066 10.023,3.195 3.195,2.135 6.001,4.844 8.425,8.135 2.419,3.296 4.308,6.973 5.665,11.041 1.353,4.066 2.034,7.943 2.034,11.62 0,4.458 -0.68,8.716 -2.033,12.782 z m -392.49,302.946 c 2.324,-1.934 4.889,-4.549 7.699,-7.844 2.806,-3.291 5.375,-7.891 7.699,-13.801 2.324,-5.906 3.486,-14.281 3.486,-25.13 0,-21.108 -4.844,-36.556 -14.526,-46.338 -9.687,-9.778 -25.76,-14.671 -48.226,-14.671 -10.654,0 -19.61,0.871 -26.873,2.614 -7.263,1.743 -13.174,4.407 -17.722,7.989 -4.553,3.586 -7.844,8.279 -9.878,14.091 -2.034,5.81 -3.05,12.782 -3.05,20.917 V 481.5 c 0,8.134 1.017,15.106 3.05,20.917 2.033,5.811 5.325,10.509 9.878,14.091 4.548,3.586 10.458,6.246 17.722,7.989 7.263,1.743 16.219,2.615 26.873,2.615 11.23,0 20.817,-1.208 28.762,-3.633 7.939,-2.419 14.426,-6.1 19.464,-11.039 5.035,-4.939 8.716,-11.23 11.04,-18.885 2.324,-7.648 3.486,-16.8 3.486,-27.453 0,-10.65 -1.162,-18.93 -3.486,-24.84 -2.324,-5.906 -4.893,-10.604 -7.699,-14.09 -2.81,-3.486 -5.375,-6.342 -7.699,-8.57 -2.324,-2.225 -3.486,-4.984 -3.486,-8.28 0,-2.904 1.162,-5.324 3.486,-7.261 z m -2.615,63.043 c 0,3.877 -0.681,7.844 -2.034,11.911 -1.357,4.067 -3.246,7.749 -5.665,11.04 -2.424,3.295 -5.229,5.955 -8.425,7.988 -3.196,2.034 -6.537,3.051 -10.022,3.051 -4.068,0 -7.699,-0.916 -10.895,-2.76 -3.195,-1.838 -5.91,-4.308 -8.134,-7.408 -2.229,-3.096 -3.922,-6.682 -5.084,-10.749 -1.162,-4.067 -1.743,-8.425 -1.743,-13.073 0,-3.678 0.626,-7.555 1.888,-11.621 1.257,-4.067 3.05,-7.744 5.375,-11.04 2.324,-3.29 5.034,-6.001 8.134,-8.134 3.096,-2.13 6.583,-3.196 10.459,-3.196 3.677,0 7.118,0.972 10.313,2.905 3.196,1.938 5.956,4.503 8.28,7.699 2.324,3.195 4.163,6.826 5.52,10.895 1.353,4.066 2.033,8.234 2.033,12.492 z m -2.033,-97.325 c -1.357,4.066 -3.196,7.698 -5.52,10.894 -2.324,3.196 -5.084,5.766 -8.28,7.699 -3.195,1.938 -6.636,2.905 -10.313,2.905 -3.877,0 -7.408,-1.017 -10.604,-3.051 -3.196,-2.033 -5.911,-4.693 -8.135,-7.988 -2.229,-3.292 -3.972,-6.974 -5.229,-11.041 -1.262,-4.066 -1.888,-8.034 -1.888,-11.911 0,-4.647 0.581,-9.006 1.743,-13.073 1.162,-4.066 2.855,-7.648 5.084,-10.749 2.224,-3.097 4.939,-5.565 8.134,-7.408 3.196,-1.839 6.827,-2.76 10.895,-2.76 3.486,0 6.827,1.066 10.022,3.194 3.196,2.135 5.956,4.845 8.28,8.136 2.324,3.296 4.212,6.972 5.666,11.04 1.453,4.066 2.179,7.943 2.179,11.62 -10e-4,4.263 -0.681,8.426 -2.034,12.493 z m 99.647,-74.664 c -40.673,0 -61.009,15.397 -61.009,46.193 V 487.02 c 0,5.62 1.743,10.895 5.229,15.834 3.486,4.938 7.989,9.201 13.509,12.782 5.52,3.586 11.812,6.441 18.884,8.57 7.067,2.135 14.281,3.196 21.644,3.196 9.296,0 17.817,-0.967 25.565,-2.905 7.744,-1.934 14.381,-4.648 19.901,-8.135 5.52,-3.487 9.778,-7.699 12.783,-12.638 3,-4.938 4.503,-10.504 4.503,-16.705 V 334.207 c 0,-26.728 -20.337,-40.092 -61.009,-40.092 z m 39.51,176.928 c 0,4.262 -0.726,8.184 -2.179,11.766 -1.453,3.586 -3.341,6.682 -5.666,9.297 -2.324,2.613 -5.039,4.647 -8.134,6.1 -3.1,1.453 -6.201,2.18 -9.296,2.18 -17.241,0 -25.856,-5.615 -25.856,-16.85 v -42.998 c 0,-1.742 -1.067,-4.066 -3.196,-6.973 -2.134,-2.904 -4.408,-5.76 -6.827,-8.57 -2.424,-2.805 -4.698,-5.274 -6.827,-7.408 -2.134,-2.129 -3.196,-3.387 -3.196,-3.777 -2.715,-3.485 -4.458,-6.436 -5.229,-8.859 -0.776,-2.42 -1.162,-6.052 -1.162,-10.895 0,-15.493 0.481,-28.276 1.453,-38.35 0.967,-10.068 2.805,-18.107 5.52,-24.113 2.71,-6.001 6.632,-10.168 11.766,-12.492 5.129,-2.324 11.862,-3.486 20.191,-3.486 25.756,0 38.639,11.525 38.639,34.572 v 120.856 z m 96.45,-175.766 c -10.458,0 -19.37,0.871 -26.728,2.614 -7.363,1.743 -13.318,4.407 -17.867,7.989 -4.553,3.586 -7.844,8.279 -9.878,14.091 -2.034,5.81 -3.05,12.782 -3.05,20.917 v 172.859 c 0,8.911 3.291,13.365 9.878,13.365 7.744,0 11.621,-6.197 11.621,-18.594 v -61.881 c 0,-5.42 0.967,-10.168 2.905,-14.236 1.934,-4.066 5.129,-7.408 9.587,-10.022 4.453,-2.614 10.214,-4.548 17.286,-5.811 7.068,-1.257 15.733,-1.888 26.002,-1.888 13.944,0 24.594,-5.18 31.957,-15.543 7.359,-10.359 11.04,-24.645 11.04,-42.853 0,-21.108 -4.843,-36.556 -14.526,-46.338 -9.687,-9.776 -25.761,-14.669 -48.227,-14.669 z m 39.22,73.792 c -1.357,4.067 -3.196,7.698 -5.52,10.895 -2.324,3.196 -5.084,5.716 -8.28,7.554 -3.195,1.843 -6.636,2.76 -10.313,2.76 -3.876,0 -7.363,-1.017 -10.459,-3.051 -3.1,-2.033 -5.811,-4.648 -8.135,-7.844 -2.324,-3.195 -4.117,-6.827 -5.375,-10.895 -1.262,-4.067 -1.888,-8.135 -1.888,-12.202 0,-4.647 0.581,-9.006 1.743,-13.073 1.162,-4.066 2.855,-7.648 5.084,-10.749 2.225,-3.097 4.939,-5.565 8.134,-7.408 3.196,-1.839 6.828,-2.76 10.895,-2.76 3.486,0 6.827,1.066 10.023,3.194 3.195,2.135 6.001,4.845 8.425,8.136 2.419,3.296 4.307,6.972 5.665,11.04 1.353,4.066 2.034,7.943 2.034,11.62 10e-4,4.458 -0.68,8.716 -2.033,12.783 z"
     id="path968"
     style="fill:#7bb8e4;fill-opacity:1"
     inkscape:export-filename="D:\path12.png"
     inkscape:export-xdpi="96"
     inkscape:export-ydpi="96" /><path
     fill="#7bb8e4"
     d="m 648.013,1157.053 -147.114,-6.146 -105.057,-78.619 128.122,12.1 c 0.135,0.738 0.27,1.455 0.401,2.146 2.061,10.41 4.75,15.732 4.75,15.732 0,0 14.595,33.875 59.177,22.004 0,0 -0.992,-5.227 -2.068,-13.918 l 0.012,-0 z m 200.67,35.404 -0.011,0.012 c 5.889,6.48 9.712,10.178 9.712,10.178 -29.602,35.402 -61.038,16.123 -61.038,16.123 0,0 -4.694,-3.197 -11.862,-11.266 -0.012,0 -0.012,0 -0.012,0 -0.365,-0.414 -0.743,-0.838 -1.109,-1.275 l -113.216,64.838 131.167,3.711 123.765,-79.744 z"
     id="path970"
     inkscape:export-filename="D:\path12.png"
     inkscape:export-xdpi="96"
     inkscape:export-ydpi="96" /><path
     fill="#2075bc"
     d="m 802.313,1274.779 3.857,43.498 c 0,0 -129.58,-3.547 -131.167,-3.713 1.071,-0.094 -3.857,-43.496 -3.857,-43.496 z M 395.842,1072.287 c 0,0 -20.979,38.322 -21.918,37.781 -0.928,-0.539 105.068,78.619 105.068,78.619 l 21.906,-37.781 z"
     id="path972"
     inkscape:export-filename="D:\path12.png"
     inkscape:export-xdpi="96"
     inkscape:export-ydpi="96" /><path
     fill="#7bb8e4"
     d="m 470.995,630.396 c 6.178,-14.333 14.33,-28.112 25.031,-38.798 32.404,5.584 44.146,36.264 44.146,36.264 l 0.499,0.73 c -8.486,5.902 -16.178,13.623 -22.074,23.719 -1.188,-1.877 -16.455,-24.818 -47.602,-21.915 z m 468.812,119.303 c 0,0 10.363,25.98 6.987,41.084 l -14.758,2.506 c 0,0 -1.979,15.531 -6.982,24.975 l 11.382,8.633 c 0,0 -7.849,23.795 -21.521,32.727 l -13.301,-8.311 c 0,0 -8.958,9.451 -22.642,14.43 l 2.402,14.111 c 0,0 -28.43,11.449 -39.801,6.779 l -1.535,-12.943 c 0,0 -23.784,-3.885 -27.008,-7.295 l -8.414,12.652 c 0,0 -24.869,-10.299 -32.078,-21.613 l 8.726,-14.699 c 0,0 -10.631,-8.102 -14.847,-21.254 l -16.477,0.207 c 0,0 -9.721,-22.168 -6.344,-37.271 l 15.938,-3.373 c 0,0 0.695,-15.313 4.729,-26.568 l -10.631,-8.102 c 0,0 8.381,-20.58 21.406,-33.361 l 13.405,8.947 c 0,0 10.886,-9.787 22.652,-14.422 l -2.518,-14.768 c 0,0 26.084,-9.729 39.801,-6.779 l 2.403,14.133 c 0,0 17.992,0.893 26.891,6.648 l 8.53,-12.018 c 0,0 22.396,7.41 32.944,22.793 l -9.062,12.77 c 0,0 10.839,9.385 14.951,21.891 z m -46.795,27.778 c -4.583,-26.939 -30.146,-45.072 -57.085,-40.479 -26.949,4.584 -45.072,30.135 -40.489,57.086 4.584,26.949 30.146,45.072 57.098,40.488 26.936,-4.595 45.059,-30.144 40.476,-57.095 z m 180.905,-139.422 c -10.684,2.941 -20.905,4.225 -29.015,4.721 l 0,0.022 c 0,0 -2.573,37.381 15.288,54.918 19.131,-2.412 35.602,-7.439 48.964,-12.988 -29.759,-12.128 -34.655,-42.079 -35.239,-46.673 z m -446.128,231.57 -2.071,-0.332 c -10.578,6.781 -23.008,16.363 -35.656,29.699 l 0.089,0.072 c 0,0 -0.081,21.053 38.538,43.801 12.248,-13.756 25.109,-24.422 37.773,-32.689 -40.137,-14.33 -38.673,-40.551 -38.673,-40.551 z m 188.953,79.227 c 8.585,-12.727 17.563,-22.473 24.992,-29.443 -29.398,1.047 -56.955,-19.713 -56.955,-19.713 -5.431,7.283 -13.341,18.625 -21.599,32.92 l 0.012,-0.002 c 0,-10e-4 25.079,21.544 53.55,16.238 z m 309.71,-348.068 c -6.278,10.563 -14.535,18.51 -23.602,24.488 l 1.968,-0.034 c 0,0 11.595,30.739 43.979,36.491 10.752,-10.644 18.977,-24.383 25.228,-38.687 -32.067,2.843 -47.174,-21.602 -47.573,-22.258 z m 19.254,-79.733 c 1.034,11.664 11.336,20.275 22.999,19.241 11.661,-1.034 20.274,-11.323 19.24,-22.987 -1.035,-11.674 -11.324,-20.287 -22.987,-19.252 -11.662,1.033 -20.287,11.324 -19.252,22.998 z m -351.495,592.793 1.835,-0.738 c -4.953,-12.066 -8.492,-24.586 -9.594,-37.006 -31.947,12.125 -58.576,-11.006 -59.441,-11.773 0.605,8.814 1.957,17.705 4.175,26.576 2.503,9.973 5.155,19.238 7.923,27.828 -0.001,-10e-4 20.453,12.626 55.102,-4.887 z m -210.348,-58.948 c -45.538,9.951 -58.864,-19.943 -58.864,-19.943 l -0.844,-0.123 c -3.314,21.621 -2.193,38.238 -0.191,49.557 0.135,0.738 0.27,1.455 0.401,2.146 l 1.544,-0.313 c 0,0 26.777,20.969 59.517,16.986 -1.296,-12.636 -2.363,-29.821 -1.563,-48.31 z m 160.079,-83.117 h -0.012 c -5.759,14.166 -10.691,29.584 -13.799,45.732 0,0 12.066,17.266 56.743,13.607 1.531,-13.414 4.282,-25.648 7.848,-36.768 -42.614,0.847 -50.78,-22.571 -50.78,-22.571 z m 15.43,-89.916 0.208,-0.828 -80.463,-20.49 c 0,0 9.378,20.168 32.26,27.77 l 0.216,0.721 c 27.629,-8.448 47.779,-7.173 47.779,-7.173 z M 499.808,732.26 c -1.094,-11.67 -11.437,-20.23 -23.095,-19.139 -11.658,1.091 -20.232,11.426 -19.139,23.084 1.092,11.658 11.437,20.23 23.095,19.139 11.658,-1.094 20.221,-11.426 19.139,-23.084 z m 537.968,-447.744 -2.104,13.044 -19.886,123.393 c -6.625,70.669 -97.296,48.702 -97.296,48.702 l -39.641,-7.148 -69.898,-12.617 -39.354,-7.104 c -91.875,-10.797 -68.35,-65.92 -68.35,-65.92 l 0.159,-0.848 23.354,-122.773 h 0.012 l 3.599,-18.949 c 12.926,-67.885 63.495,-52.978 63.495,-52.978 l 193.974,30.144 c 72.754,8.705 51.936,73.054 51.936,73.054 z m -221.854,20.426 c 10.277,-0.911 17.884,-9.985 16.972,-20.274 -0.913,-10.29 -9.997,-17.884 -20.275,-16.972 -10.289,0.912 -17.884,9.985 -16.972,20.275 0.913,10.289 9.985,17.883 20.275,16.971 z m 113.603,82.391 -31.625,17.093 -78.638,-7.314 c -19.078,6.172 1.244,14.025 1.244,14.025 l 78.632,7.256 31.644,-16.884 c 21.834,-18.36 -1.257,-14.176 -1.257,-14.176 z m 40.764,-89.042 c -1.482,-16.714 -16.232,-29.062 -32.947,-27.579 -16.715,1.483 -29.062,16.232 -27.579,32.947 1.483,16.715 16.232,29.061 32.947,27.579 16.715,-1.483 29.061,-16.233 27.579,-32.947 z M 507.27,711.76 c -0.767,-10.631 -0.404,-20.164 0.88,-28.701 -0.931,-0.703 -23.948,-17.783 -51.276,-6.609 -3.818,18.451 -4.786,32.018 -4.826,32.49 5.895,-6.025 13.865,-10.064 22.917,-10.914 12.867,-1.2 24.807,4.333 32.305,13.734 z m 35.252,120.648 c 32.899,-103.512 -33.646,-120.25 -35.228,-120.627 1.36,1.721 2.579,3.561 3.634,5.521 2.262,4.209 3.75,8.945 4.223,14.018 1.365,14.604 -5.974,28.018 -17.758,35.092 l 0.941,0.033 c 25.662,17.527 1.48,62.982 1.48,62.982 z m 28.481,-217.627 c 10.751,-2.983 21.01,-4.245 29.015,-4.72 l -0.005,-0.059 c 0,0 2.388,-37.364 -15.537,-54.814 -19.124,2.482 -35.576,7.59 -48.92,13.208 29.56,11.89 34.77,41.401 35.447,46.385 z M 1251.06,441.65 1211.841,436.6 c 0,0 14.293,47.533 -16.131,58.725 4.514,5.524 7.482,12.405 8.16,20.053 0.997,11.244 -3.161,21.76 -10.514,29.205 83.793,-7.444 57.704,-102.933 57.704,-102.933 z m -120.706,80.247 c -1.266,-14.27 5.772,-27.364 17.116,-34.518 l -0.128,-0.517 c -25.579,-17.651 -1.176,-62.985 -1.176,-62.985 l -42.69,-3.194 c -33.802,104.589 34.657,120.808 34.657,120.808 -1.361,-1.721 -2.582,-3.584 -3.624,-5.544 -2.251,-4.224 -3.704,-8.975 -4.155,-14.05 z m -260.691,-17.739 0.864,0.088 c 0.638,-6.028 1.733,-12.46 2.908,-18.395 l -1.636,-0.324 c -14.342,-15.011 -58.297,-15.395 -67.405,-15.313 -0.929,5.396 -1.951,12.115 -3.046,20.412 2.974,-0.475 38.926,-5.67 68.315,13.532 z m 268.471,37.333 c 0.72,10.635 0.31,20.162 -1.033,28.692 0,0 23.312,18.146 51.266,6.879 3.913,-18.437 4.939,-31.994 4.98,-32.468 -5.922,5.992 -13.919,9.998 -22.975,10.801 -12.873,1.143 -24.785,-4.465 -32.238,-13.904 z M 949.807,620.65 c 0,0 3.457,11.202 1.543,17.401 l -6.262,0.555 c 0,0 -1.343,6.419 -3.753,10.199 l 4.472,3.99 c 0,0 -4.081,9.677 -10.09,12.955 l -5.286,-3.918 c 0,0 -4.053,3.645 -9.938,5.27 l 0.529,5.971 c 0,0 -12.271,3.832 -16.865,1.494 l -0.202,-5.459 c 0,0 -9.811,-2.414 -11.038,-3.949 l -3.943,5.008 c 0,0 -10.052,-5.139 -12.687,-10.113 l 4.15,-5.848 c 0,0 -4.168,-3.748 -5.5,-9.378 l -6.882,-0.47 c 0,0 -3.326,-9.594 -1.399,-15.783 l 6.762,-0.881 c 0,0 0.807,-6.371 2.877,-10.941 l -4.18,-3.736 c 0,0 4.2,-8.326 10.065,-13.233 l 5.311,4.198 c 0,0 4.879,-3.729 9.938,-5.27 l -0.555,-6.25 c 0,0 11.237,-3.19 16.866,-1.496 l 0.529,5.971 c 0,0 7.49,0.99 11.015,3.693 l 3.967,-4.739 c 0,0 9.105,3.85 12.99,10.626 l -4.21,5.03 c 0,0 4.216,4.295 5.514,9.659 z m -20.484,10.04 c -1.013,-11.418 -11.087,-19.852 -22.506,-18.839 -11.406,1.012 -19.84,11.086 -18.827,22.505 1.012,11.406 11.087,19.839 22.493,18.827 11.419,-1.013 19.852,-11.087 18.84,-22.493 z m -269.977,4.939 c 0,0 -5.414,-38.562 2.724,-53.021 l 23.303,3.494 c 0,0 4.992,-13.688 10.141,-19.928 l -9.291,-17.711 c 0,0 17.406,-22.519 42.313,-23.578 l 9.484,17.659 c 0,0 13.949,-4.217 22.17,-1.216 l 11.107,-19.333 c 0,0 29.782,2.744 45.697,27.176 l -12.14,17.078 c 0,0 8.197,14.652 9.729,20.934 l 22.323,2.9 c 0,0 11.393,26.347 -0.727,48.42 l -21.304,-2.111 c 0,0 -6.044,16.245 -12.92,18.743 l 13.196,20.086 c 0,0 -20.574,26.625 -43.515,27.205 l -10.834,-21.494 c 0,0 -15.502,1.27 -22.741,-1.139 l -10.129,19.926 c 0,0 -30.742,-6.682 -44.345,-25.006 l 10.969,-16.799 c 0,0 -9.995,-10.059 -10.505,-22.413 z m 70.614,-18.334 c 2.846,11.713 14.651,18.9 26.365,16.056 11.713,-2.845 18.902,-14.64 16.057,-26.353 -2.845,-11.713 -14.641,-18.914 -26.354,-16.069 -11.713,2.846 -18.914,14.653 -16.068,26.366 z M 561.048,937.051 c -4.264,6.959 -8.395,14.482 -12.32,22.596 -4.145,8.568 -7.699,16.766 -10.711,24.6 l 0.947,0.375 c 0,0 9.641,24.438 48.057,30.086 l 2.038,-0.039 c 2.899,-12.541 7.188,-24.629 13.366,-35.277 -29.401,-7.552 -39.345,-35.423 -41.377,-42.341 z m 196.308,227.244 c 9.891,19.992 19.622,33.418 27.006,41.936 0.366,0.438 0.744,0.861 1.109,1.275 0,0 0,0 0.012,-0 0.801,0.035 34.229,1.434 58.417,-20.418 -8.334,-9.586 -19.121,-23.012 -29.113,-38.584 -31.476,34.371 -57.431,15.793 -57.431,15.793 z m -362.517,-352.127 39.236,4.85 c 0,0 -14.52,-47.457 15.844,-58.795 -4.537,-5.51 -7.539,-12.377 -8.251,-20.02 -1.043,-11.24 3.055,-21.775 10.369,-29.252 -83.757,7.852 -57.198,103.217 -57.198,103.217 z"
     id="path974"
     inkscape:export-filename="D:\path12.png"
     inkscape:export-xdpi="96"
     inkscape:export-ydpi="96" /><path
     fill="#2a3990"
     d="m 1203.87,515.377 c -0.678,-7.647 -3.646,-14.528 -8.16,-20.053 -7.464,-9.156 -19.205,-14.567 -31.857,-13.445 -6.03,0.535 -11.594,2.482 -16.382,5.5 -11.344,7.153 -18.382,20.248 -17.116,34.518 0.45,5.075 1.903,9.826 4.155,14.05 1.042,1.96 2.263,3.823 3.624,5.544 7.453,9.439 19.365,15.047 32.238,13.904 9.056,-0.803 17.053,-4.809 22.975,-10.801 l -0,-0.012 h 0.012 c 7.352,-7.445 11.51,-17.96 10.513,-29.205 z m -35.165,24.915 c -11.663,1.034 -21.965,-7.577 -22.999,-19.241 -1.035,-11.674 7.59,-21.965 19.252,-22.998 11.663,-1.035 21.952,7.578 22.987,19.252 1.034,11.664 -7.579,21.953 -19.24,22.987 z m -242.627,654.743 3.543,39.947 -123.45,83.295 -3.857,-43.498 z M 481.844,771.51 c 5.688,-0.539 10.961,-2.332 15.549,-5.098 11.784,-7.074 19.123,-20.488 17.758,-35.092 -0.473,-5.072 -1.961,-9.809 -4.223,-14.018 -1.055,-1.961 -2.273,-3.801 -3.634,-5.521 l -0.012,0.002 c -0.013,-0.012 -0.013,-0.012 -0.013,-0.012 l -0.001,-0.012 c -7.497,-9.4 -19.438,-14.934 -32.306,-13.734 -9.052,0.85 -17.022,4.889 -22.917,10.914 l 10e-4,0.01 -0.011,0.002 c -7.314,7.477 -11.413,18.012 -10.369,29.252 0.713,7.643 3.715,14.51 8.251,20.02 7.521,9.117 19.28,14.466 31.927,13.287 z m -24.27,-35.305 c -1.093,-11.658 7.481,-21.992 19.139,-23.084 11.658,-1.092 22.001,7.469 23.095,19.139 1.082,11.658 -7.48,21.99 -19.139,23.084 -11.658,1.092 -22.003,-7.481 -23.095,-19.139 z m 266.159,-483.162 1.027,0.201 -23.354,122.773 -1.337,-0.256 -19.867,-29.971 1.633,-8.439 10.119,-52.433 3.327,-17.247 z m 311.939,44.517 21.711,23.507 -2.79,17.34 -8.499,52.724 -1.371,8.485 -28.937,21.337 z m -104.89,103.949 -31.644,16.884 -78.632,-7.256 c 0,0 -20.322,-7.854 -1.244,-14.025 l 78.638,7.314 31.625,-17.094 c 0,0.001 23.091,-4.183 1.257,14.177 z m -429.884,749.397 147.114,6.146 -20.128,34.691 -148.893,-3.057 z M 970.289,298.291 c 1.482,16.715 -10.864,31.465 -27.579,32.947 -16.715,1.481 -31.464,-10.864 -32.947,-27.579 -1.482,-16.715 10.864,-31.465 27.579,-32.947 16.715,-1.482 31.465,10.865 32.947,27.579 z m -174.643,-10.32 c -0.912,-10.29 6.683,-19.363 16.972,-20.275 10.278,-0.912 19.362,6.682 20.275,16.972 0.912,10.289 -6.694,19.363 -16.972,20.274 -10.289,0.912 -19.361,-6.682 -20.275,-16.971 z M 973.981,74.034 c 0.984,11.104 -7.459,21.191 -18.563,22.176 -11.104,0.985 -21.192,-7.46 -22.176,-18.563 -0.984,-11.105 7.458,-21.191 18.563,-22.176 11.105,-0.986 21.19,7.458 22.176,18.563 z"
     id="path976"
     inkscape:export-filename="D:\path12.png"
     inkscape:export-xdpi="96"
     inkscape:export-ydpi="96" /><path
     fill="#2075bc"
     d="m 893.012,777.477 c 4.583,26.951 -13.54,52.5 -40.477,57.096 -26.951,4.584 -52.514,-13.539 -57.098,-40.488 -4.583,-26.951 13.54,-52.502 40.489,-57.086 26.939,-4.595 52.503,13.538 57.086,40.478 z M 887.99,634.356 c 1.012,11.406 11.087,19.839 22.493,18.827 11.419,-1.013 19.852,-11.087 18.84,-22.493 -1.013,-11.418 -11.087,-19.852 -22.506,-18.839 -11.406,1.012 -19.839,11.086 -18.827,22.505 z M 746.028,590.929 c -11.713,2.846 -18.914,14.652 -16.068,26.366 2.846,11.713 14.651,18.9 26.365,16.056 11.713,-2.845 18.902,-14.64 16.057,-26.353 -2.845,-11.713 -14.641,-18.914 -26.354,-16.069 z M 908.785,218.208 c 4.065,3.366 9.32,-2.905 5.252,-6.272 -10.912,-9.037 -23.032,-16.958 -32.746,-27.321 21.862,-2.275 44.056,-0.714 65.639,-5.538 1.962,-0.438 4.217,-2.052 3.713,-4.436 -2.01,-9.542 -8.738,-17.196 -15.082,-24.265 -7.825,-8.723 -16.521,-16.779 -23.337,-26.356 -16.254,-22.841 20.815,-28.352 34.864,-34.843 4.752,-2.195 1.937,-9.883 -2.862,-7.665 -15.905,7.349 -52.657,12.784 -43.216,39.049 3.774,10.504 13.418,19.114 20.876,27.025 6.354,6.737 15.926,15.017 19.545,24.304 -22.618,4.11 -45.826,2.076 -68.549,5.541 -2.896,0.441 -4.995,3.847 -2.974,6.443 10.754,13.813 25.538,23.286 38.877,34.334 z m -322.561,892.144 c 1.076,8.691 2.068,13.918 2.068,13.918 -44.582,11.871 -59.177,-22.004 -59.177,-22.004 0,0 -2.689,-5.322 -4.75,-15.732 l 1.544,-0.313 c 0,0 26.777,20.969 59.517,16.986 0.264,2.582 0.535,4.975 0.798,7.145 z m 0.797,-95.645 2.038,-0.039 c -3.092,13.283 -4.613,27.084 -5.195,40.229 C 538.326,1064.848 525,1034.954 525,1034.954 l -0.844,-0.123 c 2.225,-14.604 6.486,-31.488 13.861,-50.584 l 0.947,0.375 c 0,-10e-4 9.64,24.437 48.057,30.085 z m 41.667,-71.842 c -9.207,10.33 -18.072,22.414 -26.264,36.525 -29.4,-7.551 -39.345,-35.422 -41.377,-42.34 9.303,-15.207 19.218,-27.748 29.014,-38.059 l 0.089,0.072 c 0,10e-4 -0.081,21.054 38.538,43.802 z m 128.668,221.43 c -6.188,-12.484 -12.449,-27.545 -18.248,-45.564 0,0 20.453,12.627 55.103,-4.887 l 1.835,-0.738 c 5.105,12.463 11.73,24.463 18.741,35.396 -31.476,34.371 -57.431,15.793 -57.431,15.793 z m 431.01,-587.233 c -2.911,13.737 -7.434,30.21 -14.341,45.979 -32.067,2.844 -47.175,-21.602 -47.573,-22.258 5,-8.433 8.751,-18.525 10.648,-30.601 0,10e-4 23.312,18.147 51.266,6.88 z m -506.531,-239.71 -10.742,-11.471 6.655,-34.61 14.206,-6.352 z M 518.597,652.311 c -4.951,8.463 -8.626,18.607 -10.447,30.748 -0.931,-0.703 -23.948,-17.783 -51.276,-6.609 2.85,-13.768 7.289,-30.244 14.122,-46.053 31.146,-2.904 46.413,20.037 47.601,21.914 z m 526.307,-9.513 -0,-0.022 c -10.405,0.652 -17.348,0.024 -17.348,0.024 18.716,-94.523 -70.765,-103.997 -70.765,-103.997 l -86.33,-17.459 c -0.816,-4.445 -0.642,-10.537 0.067,-17.099 l -0.864,-0.088 c -29.389,-19.202 -65.341,-14.007 -68.314,-13.532 -0.635,4.877 -1.304,10.298 -1.977,16.328 l -79.963,-16.17 c -54.535,-6.719 -79.128,34.245 -89.687,64.005 l -0.69,-0.243 c -16.096,-1.6 -31.001,-1.146 -44.557,0.643 17.925,17.45 15.537,54.814 15.537,54.814 l 0.005,0.059 c 7.994,-0.475 13.756,-0.188 15.573,-0.067 L 588,716.355 c -30.022,111.211 51.665,134.139 51.665,134.139 l 15.976,4.074 c 0,0 -12.429,3.506 -29.923,14.725 l 2.071,0.332 c 0,0 -1.464,26.221 38.673,40.551 15.859,-10.334 31.428,-16.936 45.131,-21.141 l -0.216,-0.721 c -22.882,-7.602 -32.26,-27.77 -32.26,-27.77 l 80.463,20.49 32.646,8.309 -0.313,1.236 c 0,0 -2.752,3.236 -7.134,9.115 0,0 27.557,20.76 56.955,19.713 8.534,-7.996 15.026,-12.324 16.48,-13.252 l 6.336,1.607 c 114.026,32.66 128.484,-95.318 128.484,-95.318 l 22.568,-114.316 c 16.092,1.682 31.015,1.297 44.589,-0.412 -17.86,-17.536 -15.287,-54.918 -15.287,-54.918 z m -316.971,56.923 c 0,0 -30.742,-6.682 -44.345,-25.006 l 10.969,-16.799 c 0,0 -9.995,-10.059 -10.505,-22.413 l -24.706,0.127 c 0,0 -5.414,-38.562 2.724,-53.021 l 23.303,3.494 c 0,0 4.992,-13.688 10.141,-19.928 l -9.291,-17.711 c 0,0 17.406,-22.519 42.313,-23.578 l 9.484,17.659 c 0,0 13.949,-4.217 22.17,-1.216 l 11.107,-19.333 c 0,0 29.782,2.744 45.697,27.176 l -12.14,17.078 c 0,0 8.197,14.652 9.729,20.934 l 22.323,2.9 c 0,0 11.393,26.347 -0.727,48.42 l -21.304,-2.111 c 0,0 -6.044,16.245 -12.92,18.743 l 13.196,20.086 c 0,0 -20.574,26.625 -43.515,27.205 l -10.834,-21.494 c 0,0 -15.502,1.27 -22.741,-1.139 z m 218.861,91.062 -14.758,2.506 c 0,0 -1.979,15.531 -6.982,24.975 l 11.382,8.633 c 0,0 -7.849,23.795 -21.521,32.727 l -13.301,-8.311 c 0,0 -8.958,9.451 -22.642,14.43 l 2.402,14.111 c 0,0 -28.43,11.449 -39.801,6.779 l -1.535,-12.943 c 0,0 -23.784,-3.885 -27.008,-7.295 l -8.414,12.652 c 0,0 -24.869,-10.299 -32.078,-21.613 l 8.726,-14.699 c 0,0 -10.631,-8.102 -14.847,-21.254 l -16.477,0.207 c 0,0 -9.721,-22.168 -6.344,-37.271 l 15.938,-3.373 c 0,0 0.695,-15.313 4.729,-26.568 l -10.631,-8.102 c 0,0 8.381,-20.58 21.406,-33.361 l 13.405,8.947 c 0,0 10.886,-9.787 22.652,-14.422 l -2.518,-14.768 c 0,0 26.084,-9.729 39.801,-6.779 l 2.403,14.133 c 0,0 17.992,0.893 26.891,6.648 l 8.53,-12.018 c 0,0 22.396,7.41 32.944,22.793 l -9.062,12.77 c 0,0 10.839,9.385 14.951,21.891 l 14.77,-2.508 c 0.002,-0.001 10.365,25.98 6.989,41.083 z m 4.556,-152.732 -6.262,0.555 c 0,0 -1.343,6.419 -3.753,10.199 l 4.472,3.99 c 0,0 -4.081,9.677 -10.09,12.955 l -5.286,-3.918 c 0,0 -4.053,3.645 -9.938,5.27 l 0.529,5.971 c 0,0 -12.271,3.832 -16.865,1.494 l -0.202,-5.459 c 0,0 -9.811,-2.414 -11.038,-3.949 l -3.943,5.008 c 0,0 -10.052,-5.139 -12.687,-10.113 l 4.15,-5.848 c 0,0 -4.168,-3.748 -5.5,-9.378 l -6.882,-0.47 c 0,0 -3.326,-9.594 -1.399,-15.783 l 6.762,-0.881 c 0,0 0.807,-6.371 2.877,-10.941 l -4.18,-3.736 c 0,0 4.2,-8.326 10.065,-13.233 l 5.311,4.198 c 0,0 4.879,-3.729 9.938,-5.27 l -0.555,-6.25 c 0,0 11.237,-3.19 16.866,-1.496 l 0.529,5.971 c 0,0 7.49,0.99 11.015,3.693 l 3.967,-4.739 c 0,0 9.105,3.85 12.99,10.626 l -4.21,5.03 c 0,0 4.216,4.295 5.514,9.659 l 6.262,-0.556 c 0,0 3.457,11.202 1.543,17.401 z m 197.448,23.678 c 0,0 -14.229,12.453 -39.642,23 -29.759,-12.129 -34.655,-42.08 -35.239,-46.673 9.677,-2.676 19.724,-6.711 28.934,-12.783 l 1.968,-0.034 c -10e-4,-10e-4 11.594,30.738 43.979,36.49 z m -421.787,402.597 c -1.111,-15.961 0.203,-31.703 3.121,-46.814 0,0 12.066,17.266 56.743,13.607 -1.574,13.75 -1.864,28.73 -0.423,44.98 -31.947,12.126 -58.576,-11.005 -59.441,-11.773 z m 131.373,138.32 c -29.602,35.402 -61.038,16.123 -61.038,16.123 0,0 -4.694,-3.197 -11.862,-11.266 0.801,0.035 34.229,1.434 58.417,-20.418 1.711,1.959 3.313,3.752 4.771,5.383 5.889,6.481 9.712,10.178 9.712,10.178 z M 804.395,470.213 c 2.412,-14.081 4.147,-19.244 4.557,-20.324 l 69.898,12.617 -0.181,1.002 c 0,0 -2.799,10.103 -5.233,22.343 l -1.636,-0.324 c -14.342,-15.011 -58.297,-15.395 -67.405,-15.314 z m 250.198,-131.806 11.156,10.848 -5.631,34.79 -14.024,7.086 z M 743.942,971.779 h -0.012 c 5.912,-14.555 12.692,-27.791 19.25,-39.164 l 0.012,-0.002 c 0,0 25.079,21.545 53.55,16.238 -8.305,12.316 -16.232,27.426 -22.02,45.5 -42.614,0.846 -50.78,-22.572 -50.78,-22.572 z M 496.026,591.598 c 0,0 14.163,-12.518 39.529,-23.202 29.561,11.89 34.771,41.401 35.447,46.385 -10.157,2.802 -20.752,7.144 -30.332,13.812 l -0.499,-0.73 c 10e-4,-0.001 -11.74,-30.681 -44.145,-36.265 z M 892.819,52.637 c 9.032,1.104 17.752,3.615 26.225,6.887 4.921,1.9 1.414,9.293 -3.488,7.399 -7.829,-3.022 -15.864,-5.218 -24.207,-6.237 -5.236,-0.639 -3.75,-8.686 1.47,-8.049 z m 29.35,-48.579 c -1.231,-5.069 6.425,-7.976 7.666,-2.864 2.95,12.148 7.285,23.898 10.234,36.044 1.233,5.071 -6.423,7.976 -7.663,2.864 C 929.455,27.955 925.12,16.205 922.169,4.058 Z M 970.23,38.03 c 6.036,-9.2 11.325,-18.877 16.162,-28.754 2.316,-4.729 9.726,-1.263 7.4,3.488 -5.151,10.516 -10.865,20.723 -17.291,30.517 -2.892,4.408 -9.132,-0.89 -6.271,-5.251 z m 19.654,37.673 c 10.054,0.773 20.113,1.535 30.144,2.604 5.242,0.561 3.752,8.606 -1.47,8.049 -10.031,-1.07 -20.091,-1.832 -30.145,-2.605 -5.249,-0.404 -3.745,-8.45 1.471,-8.048 z m -22.699,34.438 c -3.255,-4.174 3.441,-8.881 6.67,-4.737 3.801,4.876 6.42,10.392 8.875,16.03 2.112,4.852 -5.57,7.675 -7.664,2.864 -2.188,-5.024 -4.495,-9.814 -7.881,-14.157 z"
     id="path978"
     inkscape:export-filename="D:\path12.png"
     inkscape:export-xdpi="96"
     inkscape:export-ydpi="96" /></g></svg>
