<?xml version="1.0" encoding="utf-8"?>
<!-- Generator: Adobe Illustrator 16.0.0, SVG Export Plug-In . SVG Version: 6.00 Build 0)  -->
<!DOCTYPE svg PUBLIC "-//W3C//DTD SVG 1.1//EN" "http://www.w3.org/Graphics/SVG/1.1/DTD/svg11.dtd">
<svg version="1.1" id="Í_xBC__xB2_ã_1" xmlns="http://www.w3.org/2000/svg" xmlns:xlink="http://www.w3.org/1999/xlink" x="0px"
	 y="0px" width="1082.323px" height="805.187px" viewBox="0 0 1082.323 805.187" enable-background="new 0 0 1082.323 805.187"
	 xml:space="preserve">
<g>
	<path fill="#231F20" d="M100.942,332.566c4.197,1.546,8.394,2.872,12.37,3.976c10.161,3.092,19.216,5.521,27.168,7.509
		c8.615,1.989,15.682,3.535,20.764,4.419c6.847,1.104,10.38,1.546,10.38,1.546c-1.104-1.546-4.417-5.523-10.38-10.824
		c-5.082-4.417-11.929-9.719-20.764-14.798c-7.73-4.639-16.787-9.057-27.168-12.812c-1.325-0.442-2.651-0.884-3.977-1.324
		c-2.872-0.884-5.521-1.768-8.394-2.43c-36.445-9.718-71.124-1.547-71.124-1.547s22.53,10.382,62.289,23.415
		C95.199,330.799,98.071,331.683,100.942,332.566z"/>
	<path fill="#231F20" d="M100.942,358.851c4.418,0,8.615,0,12.37,0c12.591,0,21.425-0.442,27.168-0.662
		c6.848-0.442,9.497-1.105,9.497-1.105c-2.649-1.546-5.963-3.313-9.497-5.08c-7.73-3.755-16.787-7.731-27.168-10.824
		c-3.977-1.324-8.173-2.43-12.37-3.312c-11.706-2.651-24.738-4.197-38.433-3.755C24.739,335.878,0,351.12,0,351.12
		s28.935,5.743,81.947,7.289C89.015,358.629,95.199,358.629,100.942,358.851z"/>
	<path fill="#231F20" d="M161.245,287.065c3.312,5.521,6.625,11.264,9.938,16.786c20.764,34.017,37.771,51.909,37.771,51.909
		c-0.662-7.953-0.221-38.435-22.75-74.438c-7.731-12.148-16.566-21.867-24.959-29.378c-7.732-7.067-15.243-12.148-20.764-15.462
		c-5.965-3.313-9.718-4.859-9.718-4.859s3.753,7.069,9.718,17.892C146.002,259.675,153.291,273.149,161.245,287.065z"/>
	<path fill="#231F20" d="M100.942,284.414c3.756,3.093,7.731,6.407,12.37,9.94c7.731,6.186,16.565,12.811,26.505,19.879
		c0.222,0.22,0.441,0.22,0.663,0.442c8.173,5.743,15.02,10.603,20.764,14.578c25.621,17.228,30.701,18.112,30.701,18.112
		c-5.08-13.474-16.788-30.924-30.701-45.06c-3.979-3.976-8.173-7.73-12.371-11.044c-2.65-2.43-5.521-4.638-8.394-6.625
		c-8.836-6.185-18.333-10.824-27.168-14.578c-4.419-1.547-8.395-3.093-12.37-4.417c-15.682-4.861-27.61-6.407-27.61-6.407
		S82.389,268.952,100.942,284.414z"/>
	<path fill="#231F20" d="M237.89,493.811c-17.23-14.357-27.168-34.017-28.495-37.329c-1.325-3.094-2.208-3.756-3.092-3.978
		l-1.987-0.441c14.357-9.055,24.075-25.623,24.075-44.396c0-28.494-22.309-51.687-49.478-51.687c-6.186,0-12.147,1.326-17.669,3.313
		c-8.173,3.313-15.462,8.835-20.764,15.904c-6.847,9.055-11.044,20.321-11.044,32.469c0,2.65,0.22,5.301,0.662,7.951
		c-5.963,2.651-11.484,5.521-16.786,8.615c-4.419,2.65-8.395,5.301-12.37,8.173c-23.635,17.228-40.2,39.317-45.722,58.092
		c-7.953,27.389-2.43,59.638,17.008,90.34c7.509,11.929,17.228,25.18,28.714,38.434c3.976,4.418,7.951,9.056,12.37,13.474
		c8.394,9.056,17.45,17.892,27.168,26.285c6.626,5.964,13.694,11.928,20.764,17.45c1.323,0.883,2.43,1.766,3.753,2.649
		c-1.323-1.104-2.43-2.43-3.753-3.533c-7.954-7.511-14.8-14.578-20.764-21.205c-11.486-12.148-19.879-22.751-27.168-32.912
		c-2.209-3.092-4.197-5.963-6.185-8.834c-2.21-3.534-4.197-6.848-6.186-10.383c-7.289-12.59-13.032-25.62-16.787-39.316
		c4.639-2.208,10.382-4.638,16.787-6.847c3.756-1.547,7.951-2.872,12.37-3.977c3.092-0.883,6.184-1.768,9.497-2.43
		c6.185-1.545,12.148-1.987,17.671-1.987c7.951,0.442,15.02,2.43,20.764,6.405c4.194,2.65,7.729,6.186,10.601,10.603
		c10.16,15.24,9.939,46.386,5.301,70.019c7.289-20.983,11.486-52.79,7.73-69.356c-2.871-11.706-9.055-24.297-23.632-30.481
		c-5.524-2.43-12.371-3.754-20.764-3.754c-1.105,0-2.209,0.22-3.313,0.22c-8.614,0.441-16.787,1.546-23.854,3.092
		c-4.419,0.884-8.614,1.989-12.37,3.094c-9.938,2.871-17.008,5.963-20.321,7.509c-0.441-2.208-0.662-4.638-0.884-7.067
		c-0.662-9.719-0.662-20.321,0.664-28.053c2.208-11.485,6.847-28.713,17.67-45.942c0.441,2.43,1.104,6.847,2.871,12.59
		c2.21,6.627,5.964,15.02,12.37,23.192c0.662,0.884,1.324,1.987,2.208,2.872c6.627,6.625,15.242,10.822,24.96,13.031
		c6.626,1.324,13.694,1.988,20.764,1.547c4.638-0.442,9.275-1.104,13.472-1.988c17.008-3.976,39.318-13.695,51.906-21.425
		c4.197,5.741,7.953,11.484,10.824,16.565c8.173,13.915,12.591,28.272,14.137,38.654c14.357-2.209,43.957-21.868,50.141-27.39
		C274.115,517.001,255.117,507.946,237.89,493.811z M186.204,504.633c-8.835,1.546-17.229,1.767-24.959,1.104
		c-7.732-0.663-14.8-2.208-20.764-4.638c-5.522-2.21-10.16-5.081-13.915-8.614c-5.302-4.86-9.94-12.591-13.253-20.764
		c-3.093-7.511-4.859-15.24-4.859-21.647c1.767-1.987,3.313-3.975,4.859-5.521c9.056-10.383,16.344-16.788,19.216-18.996
		c1.768,5.301,4.417,10.161,7.952,14.578c5.302,7.067,12.591,12.59,20.764,15.904c5.521,2.207,11.483,3.312,17.669,3.312
		c5.963,0,11.706-1.104,16.787-3.092c0.883,1.987,3.313,5.081,9.057,11.265c5.965,6.186,14.138,15.904,21.426,25.844
		C223.312,494.692,209.175,500.657,186.204,504.633z"/>
	<path fill="#231F20" d="M100.942,419.814c5.743-4.859,9.719-9.94,12.37-14.578c2.87-5.301,4.196-10.382,4.638-14.799
		c0,0-1.546,1.768-4.638,4.417c-2.871,2.43-7.068,5.965-12.37,10.16c-7.289,5.523-16.565,12.37-27.83,19.217
		C45.28,441.46,18.996,448.529,8.394,450.738c12.811,0.44,47.047-5.081,74.438-19.217C90.34,427.766,96.305,423.79,100.942,419.814z
		"/>
	<path fill="#231F20" d="M100.942,370.558c-8.173,1.546-17.892,3.755-29.156,7.069c-34.457,10.161-54.116,27.168-54.116,27.168
		s28.936-1.545,66.265-11.044c6.405-1.768,12.148-3.534,17.008-5.521c4.64-1.768,8.835-3.535,12.37-5.301
		c14.798-7.731,20.321-14.8,20.321-14.8c-3.535-0.442-10.16-0.662-20.321,0.442C109.558,369.012,105.582,369.674,100.942,370.558z"
		/>
</g>
<g>
	<path fill="#0793D4" d="M591.969,129.878l-8.394,10.382l-16.124-12.812l8.615-10.823l-4.859-4.197l-9.278,10.603l-13.033-10.603
		l9.941-12.148l-4.859-4.197c0,0-5.744,6.849-10.604,12.592c-3.313,3.976-5.963,7.289-5.963,7.509c0,0,2.208,1.768,5.963,4.639
		c12.371,9.497,39.981,29.818,39.981,29.818l8.613-10.161l5.743-7.067l-4.859-4.639L591.969,129.878z"/>
	<path fill="#0793D4" d="M572.089,149.979c2.21,9.938-3.312,16.345-17.228,9.276c-4.417-2.209-8.173-4.417-11.487-6.627
		c-7.289-4.638-11.926-9.497-12.59-14.136c-1.104-7.069,8.615-9.94,8.615-9.94l-5.521-3.976
		c-4.859,1.105-13.475,8.836-10.162,19.879c2.209,7.069,9.939,14.358,19.658,19.439c5.521,2.87,11.93,4.859,18.114,5.742
		c17.228,2.209,17.008-15.462,17.008-15.462L572.089,149.979z"/>
	<path fill="#0793D4" d="M972.99,63.613l-7.51-6.184c-0.883,0.884-4.195,3.754-8.395,7.289c-8.391,7.509-20.32,17.67-20.32,17.67
		l14.137-34.677l-5.521-3.755c0,0-18.775,17.228-27.389,26.946c2.207-4.859,11.266-35.34,11.266-35.34l-8.396-4.197
		c-2.648,14.356-11.041,41.746-14.576,52.569c-0.885,2.872-1.547,4.419-1.547,4.419l1.547,0.882l3.092,1.547l27.168-28.052
		L922.41,98.955l3.977,2.872c3.313-3.092,18.553-15.462,30.699-25.401C965.921,69.356,972.99,63.613,972.99,63.613z"/>
	<polygon fill="#0793D4" points="512.451,156.826 510.021,161.244 508.034,164.999 510.021,165.883 540.725,181.343 
		510.021,182.669 500.745,183.111 497.873,191.063 510.021,195.701 543.375,208.954 551.107,211.825 553.978,204.536 
		543.375,200.119 520.845,190.622 543.375,190.18 560.605,189.738 563.697,183.773 543.375,173.172 	"/>
	<path fill="#0793D4" d="M1076.585,240.541l-1.547-9.719c0,0-14.137,3.312-34.457,7.731c7.289-5.301,29.598-27.832,29.598-27.832
		l-2.209-8.393l-42.41,14.356l-11.926,4.197l2.207,7.289l9.719-2.872l24.74-7.509l-24.74,21.646l-5.963,5.081l1.545,7.289
		l4.418-0.884L1076.585,240.541z"/>
	<path fill="#0793D4" d="M510.021,249.155c-0.883,0-1.766-0.222-2.649-0.222c-15.021-1.104-24.96,7.289-26.063,22.971l-0.443,16.788
		l29.156,0.662l27.391,0.442c0,0,0.662-12.369,0.221-19.658C537.412,263.07,529.019,251.363,510.021,249.155z M531.668,279.636
		l-21.647-1.766l-21.867-1.546c-0.22-13.032,6.848-17.45,20.322-16.346c0.662,0,1.104,0.22,1.545,0.22
		C536.085,262.85,531.668,279.636,531.668,279.636z"/>
	<path fill="#0793D4" d="M1078.792,253.573l-53.232,7.951l-3.313,0.662c0,0,2.209,23.415,2.65,27.61h0.662l5.744-0.442
		c0,0-1.105-14.136-1.547-18.112l20.32-2.43l1.326,17.008l6.406-0.442c0,0-0.662-10.381-1.326-17.228l17.006-1.768
		c0,0,1.549,16.346,1.549,20.321l6.625-0.662C1081.664,286.042,1079.898,261.524,1078.792,253.573z"/>
	<path fill="#0793D4" d="M510.021,214.255l-18.333-1.324l-2.649,10.603l20.982,10.381l32.028,16.124l1.325-8.393l-11.264-5.521
		l2.648-11.486l8.615,0.884l3.977,0.22l2.651-8.393l-6.628-0.442L510.021,214.255z M525.925,233.03l-15.904-8.173l-5.963-2.872
		l5.963,0.442l18.113,1.547L525.925,233.03z"/>
	<polygon fill="#0793D4" points="607.431,58.754 616.267,52.571 612.291,46.386 591.969,60.964 586.227,64.939 590.645,70.24 
		591.969,69.356 599.921,63.835 630.624,104.256 634.379,101.606 637.029,99.618 634.379,95.863 	"/>
	<path fill="#0793D4" d="M821.908,2.651c-3.314-0.884-7.068-1.105-11.045-0.884l-5.74,55.882l7.729,1.104l3.535-26.063
		c0.221,0,0.883,0,1.324,0c1.105,0.882,3.094,2.649,4.197,5.963c0.223,0.884,0.441,1.988,0.662,3.092
		c1.105,7.731,1.105,18.334,1.105,18.334l8.393,1.104c0,0-0.883-17.228-2.43-23.854c-0.883-3.092-1.986-5.08-3.092-6.186
		c3.314-1.546,6.406-3.976,8.393-8.171C839.578,13.252,833.615,5.301,821.908,2.651z M826.324,19.217
		c-0.219,3.534-1.986,5.743-4.416,6.847c-1.547,0.442-3.092,0.662-4.859,0.662l2.43-17.892c0.883,0.222,1.545,0.442,2.43,0.664
		C825.222,11.044,826.99,14.136,826.324,19.217z"/>
	<path fill="#0793D4" d="M1003.031,90.783l-5.742-6.407l-1.768,1.547l-23.635,23.633l12.148-37.329l-5.744-4.638l-21.205,24.959
		l-15.902,18.775l4.42,4.197l11.482-12.37l13.254-14.136c-2.65,9.939-11.486,31.808-13.254,35.783
		c-0.219,0.442-0.219,0.662-0.219,0.662l0.219,0.222l4.42,4.196l34.016-32.028L1003.031,90.783z"/>
	<path fill="#0793D4" d="M907.83,36.003c0-2.871-0.439-5.522-1.545-7.729c-1.988-4.197-5.303-7.069-8.395-8.395
		c-3.092-1.104-6.625-1.104-10.16,0.664c-3.314,1.546-6.406,4.417-9.498,9.055c-6.625,9.719-10.602,23.635-9.496,35.121
		c0.883,10.161,9.275,15.462,18.994,8.613c1.105-0.882,2.43-1.766,3.756-3.092c7.951-8.173,12.59-17.449,14.799-25.4
		C907.167,41.526,907.611,38.654,907.83,36.003z M892.369,55.221c-1.324,2.651-3.092,5.522-4.639,7.952
		c-3.975,5.521-7.951,9.055-10.604,5.742c-4.637-5.301,2.873-25.401,9.721-36.445c0.221-0.442,0.441-0.884,0.883-1.326
		c4.418-6.183,9.277-5.079,11.045-2.208C902.531,34.679,894.798,50.361,892.369,55.221z"/>
	<path fill="#0793D4" d="M1035.943,146.004c2.209,3.753,4.197,7.289,5.742,10.38l6.404-3.755c0,0-13.031-22.75-17.449-28.714
		l-5.08,3.313l-0.883,0.442c0,0,0.221,0.442,0.883,1.324c0.885,1.547,2.873,4.419,5.08,7.953l-5.08,3.313l-30.039,19.657
		l-7.289,4.859l3.975,7.511l3.314-1.988l30.039-17.892L1035.943,146.004z"/>
	<path fill="#0793D4" d="M1023.572,204.978c0.443-0.22,1.105-0.442,1.988-0.662c9.498-3.755,37.992-14.578,37.992-14.578
		l-3.756-8.615l-34.236,14.136l-6.848,2.651c-6.406,2.43-12.59-7.069-3.754-12.148l10.602-4.859l29.158-13.474l-4.199-8.615
		l-24.959,12.59l-14.357,7.069c-6.184,3.312-10.822,14.136-6.846,21.425C1008.552,207.188,1017.167,207.629,1023.572,204.978z"/>
	<polygon fill="#0793D4" points="717.43,5.963 707.933,8.173 707.049,29.156 695.785,11.044 686.507,13.916 705.503,39.316 
		713.234,65.381 720.965,63.394 714.118,38.433 	"/>
	<path fill="#0793D4" d="M788.777,44.618c-0.443,6.847-9.72,9.499-10.825-0.662L777.511,0l-9.499,0.222l1.767,43.954
		c0.441,7.069,6.406,14.8,14.799,14.138c8.395-0.664,12.15-8.395,12.592-15.241c0.221-7.069,2.428-42.851,2.428-42.851h-9.496
		L788.777,44.618z"/>
	<path fill="#0793D4" d="M648.295,37.329c-4.64-3.755-9.719-4.417-13.916-3.534c-1.988,0.442-3.756,1.104-5.081,1.767
		c-5.08,3.313-7.729,10.602-3.976,21.646c1.987,5.523,5.081,11.044,9.057,15.903c3.976,5.081,8.614,9.499,13.694,12.59
		c9.718,5.963,20.32,0.884,17.891-15.02C663.535,54.779,654.92,42.852,648.295,37.329z M656.468,81.505
		c-6.407,0.442-16.788-14.356-22.089-26.063c-0.662-1.325-1.104-2.43-1.546-3.313c-2.43-6.407-0.884-9.94,1.546-11.267
		c0.884-0.44,1.768-0.662,2.871-0.662c6.627,0.442,14.799,16.125,17.228,20.764C659.337,70.24,662.431,81.285,656.468,81.505z"/>
	<path fill="#0793D4" d="M743.274,1.104c-2.209-0.44-4.197-0.44-5.743-0.22c-5.963,1.104-11.265,6.847-11.706,18.554
		c-0.442,11.706,3.755,25.622,10.603,34.679c1.987,2.65,4.417,4.637,6.847,5.301c6.186,2.208,12.811-1.326,15.24-12.591
		c3.535-15.461,0.222-29.819-4.195-37.55C751.667,4.417,747.25,1.988,743.274,1.104z M745.704,53.454
		c-0.884-0.221-1.768-0.883-2.43-1.767c-5.301-5.523-8.395-22.973-8.614-34.237c0-9.277,4.859-11.044,8.393-9.497l0.222,0.22
		c5.743,2.872,7.51,20.321,8.173,25.401C752.331,44.176,751.447,55.442,745.704,53.454z"/>
</g>
<g>
	<path fill="#DC4D07" d="M491.884,553.822l24.517-3.533l25.181-3.756l-1.324-9.055l-23.856,2.43l-33.573,3.533
		c0,0,4.859,28.272,5.963,33.132l6.849-1.324L491.884,553.822z"/>
	<path fill="#DC4D07" d="M678.087,743.782c0.883-1.548,1.326-3.093,1.326-4.419c0.219-2.87,0-5.521-1.326-7.951
		c-1.104-2.43-2.871-4.639-5.744-6.405l-7.951-4.417l-1.986-0.885l-8.836,15.24l-6.846,11.929l-9.721,16.787l-2.871,5.08
		c0,0,1.105,0.662,2.871,1.546c2.432,1.325,5.965,3.093,8.615,4.417c0.221,0.222,0.662,0.222,1.105,0.441
		c1.766,0.664,4.195,1.106,6.846,1.106c3.754,0,7.951-0.885,10.822-3.536c1.326-0.883,2.43-2.429,3.314-4.195
		c4.637-9.719,0.883-15.462-2.209-17.892C671.904,751.291,676.099,747.758,678.087,743.782z M660.417,764.323
		c-1.768,3.313-4.418,4.639-6.848,4.859c-2.65,0.221-5.521-0.884-6.846-1.768c-0.664-0.22-0.885-0.441-0.885-0.441l0.885-1.767
		l6.846-13.254l0.443-0.882C657.988,751.953,664.173,756.813,660.417,764.323z M664.392,745.99c-2.43,0.442-5.08-0.22-6.846-1.325
		l6.846-13.032l0.885-1.546c5.521,1.104,7.51,6.185,5.08,11.266C669.033,744.003,666.822,745.328,664.392,745.99z"/>
	<polygon fill="#DC4D07" points="548.65,579.003 546.441,570.39 516.401,578.12 491,584.304 493.65,594.906 516.401,588.279 	"/>
	<path fill="#DC4D07" d="M706.14,736.493c-2.65-0.884-6.186-0.442-9.719,1.324c-3.977,2.21-8.174,6.186-11.486,12.59
		c-3.092,5.301-5.521,10.383-6.848,15.242c-1.547,5.301-1.766,10.38-0.662,15.24c0.221,1.104,0.441,1.987,0.662,2.871
		c2.871,7.511,10.16,11.929,18.334,9.276c0.221-0.22,0.441-0.22,0.662-0.22c9.498-3.756,16.346-18.556,18.332-30.704
		C717.626,749.082,713.429,739.143,706.14,736.493z M704.152,769.183c-2.209,7.951-5.08,12.37-7.73,14.578
		c-3.314,3.092-6.406,2.872-7.951,1.768c-2.43-1.987-5.303-8.173,0.441-22.973c2.65-6.848,5.08-11.706,7.51-14.798
		c2.871-3.313,5.521-4.639,7.73-3.755C707.464,744.887,709.453,751.512,704.152,769.183z"/>
	<path fill="#DC4D07" d="M643.63,733.399c1.326-2.649,2.43-5.301,3.094-7.95c1.324-5.082,1.324-9.72,0-13.254
		c-0.885-2.43-2.211-4.418-4.197-5.964c-1.326-1.104-3.314-1.768-5.523-1.768c-5.08-0.442-11.928,1.988-18.996,8.395
		c-2.207,2.208-4.195,4.195-6.184,6.405c-5.742,6.848-9.057,13.252-9.939,20.541c-0.885,7.953,3.092,14.8,9.939,16.787
		c1.547,0.442,3.313,0.662,5.08,0.442c7.068-0.442,14.357-6.185,20.1-13.252C639.654,740.469,641.865,736.934,643.63,733.399z
		 M630.82,736.934c-9.057,13.474-16.125,13.474-18.996,11.486c-0.221-0.221-0.664-0.662-0.883-0.884
		c-1.105-1.766-1.988-5.743,0.883-11.927c1.324-2.651,3.313-5.965,6.406-9.719c8.613-10.824,15.02-15.021,18.773-13.916
		c0.441,0.221,0.883,0.441,1.326,0.662c2.209,1.546,2.65,5.523-1.326,13.696C635.679,729.425,633.47,732.737,630.82,736.934z"/>
	<polygon fill="#DC4D07" points="532.968,615.449 562.125,614.786 558.812,607.277 529.875,607.719 555.279,598.441 
		552.185,589.827 516.401,602.195 498.511,608.381 501.823,618.321 516.401,612.799 527.225,608.822 516.401,621.855 
		507.345,632.678 511.763,642.618 516.401,636.875 	"/>
	<path fill="#DC4D07" d="M563.671,632.678c0,0,5.521,9.719,7.951,12.813c3.754-2.21,5.965-3.536,5.965-3.536
		s-8.615-14.136-11.486-19.657l-49.7,25.623l-1.546,0.661c0,0,0.664,1.104,1.546,2.651c2.43,5.079,8.395,16.124,13.254,22.088
		l5.521-3.976c0,0-8.172-13.916-9.496-16.346c4.195-2.208,10.603-5.743,17.008-9.057c1.546,2.651,6.625,11.708,8.174,13.474
		l5.963-3.976c0,0-5.081-7.73-7.731-13.032C557.044,636.212,563.671,632.678,563.671,632.678z"/>
	<polygon fill="#DC4D07" points="622.205,692.758 617.125,688.12 611.824,693.421 593.49,713.078 608.068,679.283 603.208,674.646 
		561.021,713.3 567.205,719.926 592.384,695.629 578.47,730.528 584.433,735.609 611.824,704.464 	"/>
	<polygon fill="#DC4D07" points="992.181,636.212 988.426,642.838 1009.631,656.532 1002.342,667.799 981.137,652.778 
		979.592,654.766 976.719,658.962 979.592,661.172 1019.792,691.874 1022.221,693.641 1027.964,685.91 1019.792,680.167 
		1007.864,671.553 1015.375,660.287 1019.792,662.939 1036.579,673.762 1041.659,665.369 1019.792,652.557 	"/>
	<polygon fill="#DC4D07" points="1001.459,618.762 997.924,626.272 1019.792,637.759 1048.948,653.221 1052.924,644.606 
		1019.792,627.818 	"/>
	<path fill="#DC4D07" d="M1009.631,693.641c0,0,0,11.929-8.172,13.033c-7.732,0.884-14.358-5.082-21.867-13.033
		c-0.443-0.441-1.105-1.104-1.547-1.546c-8.394-8.614-8.836-13.474-7.069-17.008c1.768-3.534,5.303-3.975,7.951-4.417l-5.741-4.859
		c0,0-6.406,1.104-9.498,7.067c-0.223,0.442-0.441,1.104-0.664,1.546c-1.324,3.755-1.104,7.953,0.664,12.591
		c1.766,4.197,4.859,8.836,9.498,13.474c2.208,2.43,4.195,4.418,6.406,6.186c6.625,5.521,13.251,8.614,20.762,8.393
		c10.162-0.442,15.902-10.381,14.799-17.229L1009.631,693.641z"/>
	<path fill="#DC4D07" d="M1080.975,541.896l-28.492-3.313l-2.431,17.669l6.847,0.884l1.548-7.066l17.228,2.429
		c0,0-0.221,21.203-24.297,16.786c-24.076-4.418-23.854-16.565-21.646-21.867c2.209-5.301,7.73-10.16,7.73-10.16l-7.951-0.884
		c0,0-8.395,8.614-6.404,21.646c1.987,13.252,17.229,21.426,35.781,21.646c18.334,0.442,22.973-17.229,23.414-25.622
		C1082.522,545.871,1080.975,541.896,1080.975,541.896z"/>
	<path fill="#DC4D07" d="M1016.7,580.771l-2.65,8.173l5.742,2.208l27.389,9.278l-27.389,1.324l-10.824,0.441l-2.648,6.406
		l13.473,5.965l39.316,17.228l3.535-9.719l-32.689-12.368c0,0,32.027-1.768,39.094-3.756l2.652-8.614l-51.908-15.683L1016.7,580.771
		z"/>
	<path fill="#DC4D07" d="M963.688,713.962l-14.799-16.346c3.092-2.649,5.965-5.079,7.287-6.404l-4.417-5.521
		c0,0-10.603,9.276-17.008,14.355c-1.325,1.106-2.649,2.21-3.313,2.651l3.313,4.418l1.104,1.326c0,0,3.313-2.651,7.289-5.965
		l20.543,24.297l11.485,13.695l4.419-3.535l2.871-2.208l-2.871-3.313L963.688,713.962z"/>
	<path fill="#DC4D07" d="M934.751,721.472c-7.509-7.067-13.251-12.368-13.251-12.368l-4.419,2.871l-1.987,1.546
		c0.662,1.325,1.324,2.871,1.987,4.859c6.849,16.346,17.45,49.257,17.45,49.257l0.22-0.222l7.29-4.417
		c-0.885-2.65-2.43-6.626-4.198-11.045l11.046-7.288c5.3,4.858,9.275,8.613,9.275,8.613l5.523-4.196l1.545-1.104
		c-0.441-0.22-1.103-0.661-1.545-1.104C955.514,740.469,943.809,729.866,934.751,721.472z M934.973,744.887
		c0-0.222,0-0.442-0.222-0.664c-4.196-10.602-8.392-20.983-8.392-20.983c2.429,2.43,5.3,5.302,8.392,8.173
		c2.872,2.649,5.743,5.301,8.616,7.951L934.973,744.887z"/>
	<path fill="#DC4D07" d="M792.284,748.42c-4.64,1.546-3.533,9.498,1.545,8.614c0,0,0.885,3.534-3.091,9.719
		c5.964-0.441,9.718-5.743,9.497-11.045C800.235,750.629,796.922,746.652,792.284,748.42z"/>
	<polygon fill="#DC4D07" points="771.742,770.729 767.103,748.642 759.814,748.199 767.324,778.682 766.218,805.187 
		775.054,805.187 775.496,779.563 786.098,748.861 778.81,749.082 	"/>
	<path fill="#DC4D07" d="M813.93,760.126c-1.546-5.08,1.546-8.614,9.938-7.51l-1.546-6.184c-4.638-1.768-12.148-0.221-14.357,5.521
		c-2.43,5.743-1.988,13.475,2.652,19.659c4.858,6.185,12.81,15.462,13.251,20.321c0.442,4.64-5.742,7.51-13.913,3.533l0.881,7.953
		c0,0,7.29,2.43,15.684-1.547s7.29-14.357,1.547-21.426C822.543,773.158,815.476,764.985,813.93,760.126z"/>
	<path fill="#DC4D07" d="M739.273,745.549l-2.652-0.442l-7.508-1.324l-12.592,54.337c0,0,5.744,1.987,13.254,2.649
		c2.209,0.222,4.416,0.222,6.846-0.441c6.627-1.546,13.916-6.848,16.346-19.216C756.281,764.104,754.072,749.082,739.273,745.549z
		 M745.898,773.821c-0.883,9.939-4.637,16.345-9.277,18.774c-1.324,0.884-2.648,1.105-3.975,1.105l-5.744-0.222l7.951-41.526
		l1.768,0.442l1.326,0.221C745.677,754.824,747.224,760.79,745.898,773.821z"/>
	<polygon fill="#DC4D07" points="903.828,719.483 897.422,723.239 908.026,761.231 883.288,729.203 878.427,731.412 
		885.495,770.729 864.069,736.271 856.56,739.143 889.25,788.62 895.656,786.412 889.25,749.082 913.327,779.121 917.082,777.134 
		919.29,776.252 917.082,768.299 	"/>
</g>
</svg>
