<?xml version="1.0" encoding="utf-8"?>
<!-- Generator: Adobe Illustrator 16.0.0, SVG Export Plug-In . SVG Version: 6.00 Build 0)  -->
<!DOCTYPE svg PUBLIC "-//W3C//DTD SVG 1.1//EN" "http://www.w3.org/Graphics/SVG/1.1/DTD/svg11.dtd">
<svg version="1.1" id="Layer_1" xmlns="http://www.w3.org/2000/svg" xmlns:xlink="http://www.w3.org/1999/xlink" x="0px" y="0px"
	 width="864px" height="792px" viewBox="0 0 864 792" enable-background="new 0 0 864 792" xml:space="preserve">
<g>
	<path d="M809.08,356.978l-0.423-0.359c-0.102-0.086-10.342-8.632-31.312-12.735c-19.169-3.751-51.504-4.465-96.936,13.287
		c3.032-11.291,30.774-117.72,9.354-151.423c-1.262-2.163-3.101-4.69-6.148-5.042c-5.454-0.634-13.85,5.635-28.979,21.617
		c-25.685,27.132-36.221,70.933-37.458,100.348c-2.562,1.021-25.97,7.676-98.754-48.976c2.176-4.573,4.097-9.272,5.736-14.097
		c10.304-30.322,9.524-63.981-2.193-94.776c-21.282-55.928-81.474-130.785-82.079-131.534l-0.765-0.947l-3.983,39.572
		c-19.494-28.256-48.975-36.441-70.41-38.307c-23.502-2.047-42.666,2.86-42.857,2.91l-1.105,0.289l30.674,19.65
		c-43.32-8.831-72.453-4.077-89.37,1.549c-18.757,6.239-27.021,14.9-27.103,14.987l-0.848,0.904l60.377-3.064
		c-7.443,2.01-20.461,6.918-34.443,18.598c-19.796,16.535-45.676,50.427-56.549,117.992c-7.781,48.355,0.687,86.229,25.168,112.567
		c7.924,8.526,17.516,15.803,28.675,21.812c-1.431,2.938-4.992,11.912-3.278,25.717c0.191,1.537,0.459,3.169,0.813,4.884
		c-9.782,3.258-132.639,44.762-191.198,91.546c-7.454,6.066-10.679,12.589-8.624,17.447c2.281,5.397,11.998,11.012,45.343,7.102
		c3.544-0.498,7.433-1.111,11.55-1.76c19.993-3.151,44.877-7.07,47.241-0.239c2.305,6.658-3.888,18.822-17.907,35.179
		c-5.945,6.937-10.642,17.325-7.731,24.897c1.882,4.895,6.739,7.98,14.048,8.924c11.684,1.508,37.833-8.803,60.91-17.896
		c17.292-6.815,33.624-13.262,38.027-12.115c11.816,3.05,8.578,24.147,6.637,33.076c-2.649,12.188-2.046,21.802,1.699,27.07
		c1.855,2.61,4.457,4.135,7.729,4.531c0.448,0.055,0.913,0.081,1.401,0.081c10.979-0.001,31.813-13.727,56.338-37.215
		c15.711-15.048,31.35-32.99,40.694-43.71c4.751-5.452,8.185-9.391,9.272-10.261l0.762-0.615c3.686-2.985,10.549-8.539,16.543-7.945
		l0.046-0.464c15.776,6.359,29.69,10.382,41.146,12.913c28.583,6.315,47.729,4.837,52.242,4.342
		c-6.45,10.933-70.288,120.671-82.876,200.291c-3.784,21.369-2.638,34.461,3.72,42.449c4.478,5.627,11.591,8.616,21.747,9.137
		c1.071,0.056,2.138,0.083,3.202,0.083c23.773,0,45.841-13.848,75.197-46.916c29.675-33.427,49.842-60.284,65.392-87.081
		c16.271-28.043,37.319-51.109,46.918-51.418c1.475-0.055,2.779,0.482,3.943,1.625c5.701,5.59,5.542,23.356,5.54,23.535l-0.008,0.65
		l0.63-0.159c0.17-0.043,17.169-4.513,31.196-23.479c12.886-17.423,25.856-51.013,14.565-112.11
		c2.454-1.743,19.402-15.151,4.686-43.09c7.961-0.352,72.545-5.013,133.774-63.444L809.08,356.978z"/>
	<path fill="#1B75BC" d="M370.444,497.666l-0.757,0.61c-1.158,0.927-4.438,4.689-9.401,10.385
		c-9.333,10.707-24.954,28.629-40.632,43.645c-25.02,23.962-46.813,38.077-56.928,36.864c-2.982-0.362-5.349-1.747-7.034-4.119
		c-3.58-5.035-4.126-14.367-1.537-26.277c2.487-11.442,4.838-31.108-7.364-34.258c-4.721-1.216-20.439,4.979-38.644,12.153
		c-22.966,9.051-48.995,19.307-60.417,17.835c-7.02-0.905-11.475-3.695-13.241-8.291c-2.763-7.188,1.806-17.177,7.558-23.888
		c14.467-16.879,20.555-29.044,18.093-36.155c-2.64-7.626-26.92-3.798-48.343-0.423c-4.112,0.648-7.997,1.261-11.521,1.756
		c-34.441,4.043-42.535-2.338-44.294-6.499c-2.203-5.21,2.86-11.827,8.331-16.279c58.232-46.523,180.324-87.854,190.78-91.34
		c3.409,15.371,13.97,37.363,42.928,63.005c32.563,26.155,62.786,42.658,88.261,53.078
		C380.278,489.689,373.961,494.816,370.444,497.666z"/>
	<path fill="#FFFFFF" d="M428.964,501.957c-30.044-6.647-77.04-23.554-130.299-66.331c-32.577-28.849-41.687-52.982-43.591-68.149
		c-1.679-13.361,1.787-22.289,3.16-25.19c11.503,6.078,24.656,10.816,39.383,14.171c17.482,3.984,36.882,5.982,57.947,5.982
		c10.178,0,20.748-0.471,31.673-1.406c1.413,2.053,2.897,4.085,4.443,6.048c-1.759,3.58-16.159,34.774-2.501,68.808
		c12.227,30.469,42.691,54.186,90.538,70.525C473.645,506.957,455.361,507.798,428.964,501.957z"/>
	<path fill="#FBB040" d="M372.197,331.776l-0.98-1.96l77.663-22.013l2.805,2.373c-0.596,2.257-1.288,5.779-2.155,10.185
		c-4.32,21.958-12.362,62.831-30.55,63.639c-0.218,0.009-0.434,0.013-0.651,0.013h-0.001
		C394.93,384.012,372.434,332.325,372.197,331.776z"/>
	<path fill="#1B75BC" d="M674.079,419.833l-0.83,0.008l0.396,0.73c15.99,29.544-3.409,42.149-4.242,42.672l-0.289,0.181l0.063,0.335
		c11.322,60.899-1.519,94.299-14.283,111.593c-12.301,16.665-26.893,21.985-30.058,22.979c-0.02-3.402-0.422-18.272-5.84-23.587
		c-1.351-1.324-2.941-1.958-4.677-1.911c-11.243,0.362-33.108,26.681-47.751,51.916c-15.515,26.737-35.646,53.544-65.274,86.919
		c-30.443,34.293-52.929,47.756-77.601,46.499c-9.853-0.506-16.728-3.371-21.016-8.761c-6.163-7.745-7.247-20.591-3.517-41.662
		c13.166-83.271,82.569-199.654,83.269-200.82l0.548-0.912l-0.931,0.143c-48.714-16.259-79.646-40.019-91.933-70.623
		c-13.083-32.583-0.135-62.539,2.259-67.579c7.608,9.448,16.632,17.061,25.954,17.062h0.002c0.231,0,0.461-0.004,0.693-0.014
		c18.976-0.843,27.115-42.218,31.489-64.445c0.903-4.592,1.617-8.219,2.222-10.422l0.084-0.308l-3.696-3.128l-79.337,22.487
		l1.508,3.014c0.471,1.097,6.411,14.741,15.297,27.886c-52.327,4.399-96.273-2.216-127.842-18.798
		c0.004-0.005,0.016-0.026,0.016-0.028l-0.857-0.515c-0.006,0.011-0.03,0.054-0.044,0.077c-11.1-5.939-20.653-13.118-28.454-21.512
		c-24.261-26.102-32.643-63.692-24.912-111.728c10.814-67.21,36.5-100.904,56.143-117.334c21.264-17.787,40.221-19.73,40.409-19.748
		l-0.071-0.998l-64.316,3.265c2.643-2.366,10.832-8.871,25.81-13.838c17.135-5.684,46.905-10.459,91.428-0.938l2.694,0.576
		l-33.328-21.351c4.432-1.001,21.3-4.362,41.383-2.612c21.503,1.872,51.179,10.16,70.439,39.009l0.773,1.159l4.018-39.897
		c7.087,8.916,61.237,77.957,81.157,130.306c22.352,58.736,7.75,136.36-75.254,177.374l0.443,0.896
		c33.26-16.434,57.78-40.035,71.759-68.831c77.465,60.254,99.049,49.316,99.931,48.818l0.243-0.137l0.012-0.279
		c1.169-29.244,11.612-72.984,37.197-100.009c14.691-15.519,23.111-21.878,28.139-21.311c2.062,0.238,3.677,1.6,5.409,4.568
		c22.289,35.072-9.403,150.437-9.726,151.598l-0.27,0.968l0.935-0.369c45.645-18.017,78.063-17.349,97.224-13.615
		c18.337,3.573,28.352,10.556,30.496,12.186C742.937,418.444,674.762,419.826,674.079,419.833z"/>
	<polygon fill="#FBB040" points="376.266,329.408 376.266,327.346 441.271,308.921 443.666,308.167 445,309.75 	"/>
	<ellipse cx="359.627" cy="318.364" rx="20.373" ry="19.136"/>
	<ellipse cx="456.375" cy="296" rx="20.375" ry="19.25"/>
	<ellipse fill="#FFFFFF" cx="359.177" cy="325.23" rx="9.573" ry="8.27"/>
	<ellipse fill="#FFFFFF" cx="455" cy="303.614" rx="9" ry="8.136"/>
</g>
</svg>
